# Exported from Wings 3D 2.3
mtllib antebrazo_der.mtl
o TORSO
#45 vertices, 75 faces
v -0.27530000 1.12740000 -0.12520000
v -0.27140000 1.05750000 -0.10610000
v -0.27430000 1.13460000 -8.3400000e-2
v -0.26560000 1.06070000 -7.5900000e-2
v -0.24400000 1.06110000 -5.3500000e-2
v -0.24720000 0.98920000 -5.1000000e-2
v -0.25970000 0.98690000 -6.4200000e-2
v -0.26810000 0.98170000 -9.4800000e-2
v -0.24630000 1.05170000 -0.12860000
v -0.18640000 1.20830000 -0.12800000
v -0.18670000 1.17070000 -0.11840000
v -0.21560000 1.19890000 -0.14900000
v -0.24630000 1.19840000 -0.15290000
v -0.23660000 1.12070000 -0.15040000
v -0.24530000 1.21640000 -0.15950000
v -0.21190000 1.22550000 -0.15230000
v -0.21330000 1.21190000 -0.15140000
v -0.18620000 1.23650000 -0.12620000
v -0.20860000 1.05510000 -9.6300000e-2
v -0.18610000 1.11940000 -0.11010000
v -0.26960000 0.94490000 -8.9900000e-2
v -0.24710000 0.97930000 -0.10780000
v -0.24590000 0.94010000 -0.10430000
v -0.22760000 0.94740000 -7.6900000e-2
v -0.24100000 0.94810000 -3.9900000e-2
v -0.26400000 0.94780000 -5.9100000e-2
v -0.25440000 1.20410000 -0.13560000
v -0.26060000 1.17990000 -9.4500000e-2
v -0.24340000 1.13720000 -5.7900000e-2
v -0.21720000 1.06190000 -5.5000000e-2
v -0.22760000 0.98310000 -4.8900000e-2
v -0.21470000 0.95020000 -5.3000000e-2
v -0.22330000 0.97840000 -8.1800000e-2
v -0.20240000 1.12880000 -5.5600000e-2
v -0.19520000 1.23510000 -8.4900000e-2
v -0.19860000 1.21140000 -8.5300000e-2
v -0.22190000 1.24170000 -8.6900000e-2
v -0.22370000 1.21540000 -8.6400000e-2
v -0.20010000 1.17490000 -7.0700000e-2
v -0.23510000 1.18000000 -6.9400000e-2
v -0.25300000 1.21660000 -0.10900000
v -0.25220000 1.21750000 -0.13590000
v -0.24350000 1.23350000 -0.15460000
v -0.25070000 1.23120000 -0.13690000
v -0.24760000 1.24980000 -0.11290000
vt 0.53160000 0.85130000
vt 0.53310000 0.82070000
vt 0.53390000 0.79630000
vt 0.53430000 0.87400000
vt 0.53460000 0.80550000
vt 0.53530000 0.93250000
vt 0.53700000 0.89710000
vt 0.57340000 0.94300000
vt 0.57580000 0.92600000
vt 0.57650000 0.90220000
vt 0.57780000 0.87850000
vt 0.57850000 0.79800000
vt 0.58100000 0.84730000
vt 0.58570000 0.81640000
vt 0.61710000 0.94420000
vt 0.62440000 0.79510000
vt 0.62520000 0.81060000
vt 0.62550000 0.92870000
vt 0.62780000 0.84790000
vt 0.62810000 0.89960000
vt 0.62980000 0.87720000
vt 0.65060000 0.94510000
vt 0.65200000 0.93010000
vt 0.66270000 0.80510000
vt 0.66640000 0.78430000
vt 0.66670000 0.84840000
vt 0.66670000 0.89770000
vt 0.67050000 0.87610000
vt 0.69300000 0.94780000
vt 0.69490000 0.92660000
vt 0.69510000 0.90190000
vt 0.70220000 0.87480000
vt 0.71140000 0.78250000
vt 0.71880000 0.94900000
vt 0.72410000 0.81200000
vt 0.72570000 0.82320000
vt 0.72700000 0.83270000
vt 0.72750000 0.78030000
vt 0.73230000 0.87030000
vt 0.73240000 0.89410000
vt 0.73290000 0.92520000
vt 0.73430000 0.80890000
vt 0.73570000 0.82070000
vt 0.73680000 0.83090000
vt 0.74170000 0.77880000
vt 0.74330000 0.81040000
vt 0.74480000 0.82120000
vt 0.74600000 0.82970000
vt 0.76030000 0.88940000
vt 0.76710000 0.86370000
vt 0.77260000 0.92310000
vn -0.89460848 2.7657575e-2 -0.44599410
vn -0.96744759 -0.11707502 -0.22436264
vn -0.89592450 9.7740492e-2 0.43331985
vn -0.88140208 -8.9599061e-3 0.47228180
vn -0.42816898 3.9322327e-2 0.90284278
vn -0.44243185 0.11726829 0.88910191
vn -0.90363656 7.9602322e-2 0.42083779
vn -0.93775977 -8.7055676e-2 -0.33619625
vn -0.24231293 -0.27043662 -0.93174486
vn 0.87622843 -7.6850680e-2 -0.47572862
vn 0.95266604 -6.4418286e-2 -0.29711563
vn 0.40464223 -0.20519450 -0.89115649
vn -0.49854827 -9.0908712e-2 -0.86208191
vn 0.25020692 -0.20912479 -0.94533768
vn -0.50928160 -9.2294181e-3 -0.86055045
vn 0.45103314 2.5176274e-2 -0.89215204
vn 0.43871426 -0.17118536 -0.88217083
vn 0.70342181 4.0306653e-2 -0.70962887
vn 0.88970183 -0.27683910 -0.36302997
vn 0.96264018 -0.21563811 -0.16378062
vn -0.92144334 6.1717256e-3 -0.38846375
vn 0.24377903 -0.20712929 -0.94745408
vn 0.21223882 -8.0458248e-2 -0.97389997
vn 0.81627431 -0.14146529 -0.56007483
vn -8.2524450e-2 0.16059707 0.98356408
vn -0.81935162 0.14164170 0.55551827
vn -0.96822602 0.14409352 -0.20439037
vn -0.87461218 0.32558162 0.35923551
vn -0.28305040 0.20888026 0.93608307
vn 0.50678619 -7.0558499e-2 0.85917941
vn 0.69434739 0.10647377 0.71171978
vn 0.96980488 9.7534651e-2 0.22352960
vn 0.93350815 -0.10179918 -0.34380148
vn 0.70636818 5.6383309e-2 0.70559543
vn -7.6147061e-2 -5.9042885e-3 0.99707912
vn 0.22340855 0.20391906 0.95315562
vn -0.36796112 7.0203946e-2 0.92718716
vn -0.30596274 0.27028360 0.91287106
vn 0.62620036 0.22361363 0.74690699
vn -0.29485347 0.40268391 0.86654896
vn -0.88907531 0.24504368 0.38665061
vn -0.97967331 0.12651251 -0.15567529
vn -0.49253288 0.28725230 -0.82152144
vn -0.97635908 0.13881069 -0.16569412
vn -0.89929999 0.19240602 0.39273332
g TORSO_Mat.003
usemtl Mat.003
s 1
f 1/26/1 9/17/9 2/19/2
f 1/26/1 14/24/14 9/17/9
f 1/26/1 27/37/27 13/36/13
f 1/26/1 28/32/28 27/37/27
f 2/19/2 3/28/3 1/26/1
f 2/19/2 4/21/4 3/28/3
f 2/19/2 8/13/8 4/21/4
f 2/19/2 9/17/9 8/13/8
f 3/28/3 28/32/28 1/26/1
f 3/28/3 29/27/29 28/32/28
f 4/21/4 5/20/5 3/28/3
f 4/21/4 6/10/6 5/20/5
f 4/21/4 7/11/7 6/10/6
f 4/21/4 8/13/8 7/11/7
f 5/20/5 29/27/29 3/28/3
f 5/20/5 30/18/30 29/27/29
f 6/10/6 26/4/26 25/7/25
f 6/10/6 30/18/30 5/20/5
f 6/10/6 31/9/31 30/18/30
f 7/11/7 26/4/26 6/10/6
f 8/13/8 21/1/21 7/11/7
f 8/13/8 22/14/22 21/1/21
f 9/17/9 22/14/22 8/13/8
f 10/38/10 17/42/17 16/46/16
f 10/34/10 39/30/39 11/29/11
f 11/33/11 12/35/12 10/38/10
f 11/33/11 14/24/14 12/35/12
f 11/33/11 20/25/20 14/24/14
f 11/29/11 34/23/34 20/22/20
f 11/29/11 39/30/39 34/23/34
f 12/35/12 14/24/14 13/36/13
f 12/35/12 17/42/17 10/38/10
f 13/36/13 14/24/14 1/26/1
f 13/36/13 15/43/15 12/35/12
f 13/36/13 27/37/27 15/43/15
f 14/24/14 19/16/19 9/17/9
f 14/24/14 20/25/20 19/16/19
f 15/43/15 17/42/17 12/35/12
f 15/43/15 43/47/43 16/46/16
f 15/43/15 44/48/44 43/47/43
f 16/46/16 17/42/17 15/43/15
f 16/46/16 18/45/18 10/38/10
f 19/16/19 22/14/22 9/17/9
f 19/16/19 33/12/33 22/14/22
f 20/22/20 30/18/30 19/15/19
f 20/22/20 34/23/34 30/18/30
f 21/1/21 26/4/26 7/11/7
f 22/14/22 23/2/23 21/1/21
f 22/14/22 24/5/24 23/2/23
f 22/14/22 33/12/33 24/5/24
f 24/5/24 33/12/33 32/3/32
f 25/7/25 31/9/31 6/10/6
f 25/7/25 32/6/32 31/9/31
f 27/37/27 42/44/42 15/43/15
f 28/32/28 41/39/41 27/37/27
f 29/27/29 40/31/40 28/32/28
f 30/18/30 31/9/31 19/15/19
f 30/18/30 34/23/34 29/27/29
f 31/9/31 33/8/33 19/15/19
f 32/6/32 33/8/33 31/9/31
f 34/23/34 39/30/39 29/27/29
f 35/51/35 37/49/37 36/41/36
f 36/41/36 39/30/39 10/34/10
f 36/41/36 40/31/40 39/30/39
f 37/49/37 38/40/38 36/41/36
f 37/49/37 41/39/41 38/40/38
f 37/49/37 45/50/45 41/39/41
f 38/40/38 40/31/40 36/41/36
f 38/40/38 41/39/41 40/31/40
f 39/30/39 40/31/40 29/27/29
f 40/31/40 41/39/41 28/32/28
f 41/39/41 42/44/42 27/37/27
f 41/39/41 44/48/44 42/44/42
f 41/39/41 45/50/45 44/48/44
f 42/44/42 44/48/44 15/43/15
