# Exported from Wings 3D 2.3
mtllib brazo_izq.mtl
o TORSO
#54 vertices, 89 faces
v 0.18100000 1.55850000 -0.13760000
v 0.17930000 1.54170000 -0.16680000
v 0.17740000 1.43950000 -0.18460000
v 0.18080000 1.50680000 -0.19120000
v 0.18620000 1.46730000 -8.2700000e-2
v 0.19350000 1.50140000 -7.7400000e-2
v 0.19700000 1.53720000 -9.5500000e-2
v 0.19700000 1.41100000 -9.7600000e-2
v 0.17450000 1.44150000 -9.5800000e-2
v 0.19460000 1.41190000 -0.13630000
v 0.26580000 1.36610000 -0.14070000
v 0.27300000 1.33450000 -0.13420000
v 0.25590000 1.38050000 -0.17630000
v 0.27670000 1.28310000 -0.16160000
v 0.26940000 1.28450000 -0.18720000
v 0.26880000 1.25500000 -0.18590000
v 0.23850000 1.24570000 -0.18770000
v 0.22480000 1.28380000 -0.19360000
v 0.21160000 1.37270000 -0.19670000
v 0.18120000 1.35230000 -0.14410000
v 0.19790000 1.28460000 -0.15990000
v 0.19850000 1.28240000 -0.12420000
v 0.21120000 1.25580000 -0.15730000
v 0.22030000 1.25350000 -0.11610000
v 0.21390000 1.28020000 -0.10930000
v 0.24670000 1.26110000 -0.11790000
v 0.24370000 1.35970000 -0.11660000
v 0.27860000 1.23770000 -0.13940000
v 0.18430000 1.35810000 -0.11250000
v 0.21060000 1.36100000 -0.10020000
v 0.24670000 1.40880000 -0.11670000
v 0.23530000 1.43310000 -0.11810000
v 0.20380000 1.40930000 -0.10790000
v 0.24110000 1.49560000 -0.10810000
v 0.26120000 1.42650000 -0.15010000
v 0.22970000 1.53400000 -0.17790000
v 0.24680000 1.49100000 -0.18190000
v 0.26250000 1.49460000 -0.14320000
v 0.24390000 1.53730000 -0.14090000
v 0.17700000 1.39680000 -0.12490000
v 0.26850000 1.39580000 -0.14620000
v 0.25100000 1.40620000 -0.18710000
v 0.23940000 1.43390000 -0.18950000
v 0.20310000 1.40300000 -0.20080000
v 0.19510000 1.44070000 -0.20410000
v 0.21260000 1.22770000 -0.15970000
v 0.27810000 1.23830000 -0.16700000
v 0.18320000 1.35610000 -0.17170000
v 0.17560000 1.39000000 -0.16920000
v 0.23960000 1.23180000 -0.18250000
v 0.27140000 1.23680000 -0.19050000
v 0.27210000 1.27110000 -0.14360000
v 0.27610000 1.25250000 -0.16810000
v 0.22570000 1.53270000 -0.10960000
vt 0.21390000 0.78030000
vt 0.21870000 0.87030000
vt 0.22070000 0.80890000
vt 0.22200000 0.82070000
vt 0.22320000 0.83090000
vt 0.22810000 0.77880000
vt 0.23120000 0.82120000
vt 0.23240000 0.82970000
vt 0.23530000 0.80480000
vt 0.25050000 0.88940000
vt 0.25900000 0.92310000
vt 0.25990000 0.86180000
vt 0.26180000 0.94800000
vt 0.26750000 0.91820000
vt 0.26830000 0.79430000
vt 0.26930000 0.92390000
vt 0.27160000 0.81860000
vt 0.27430000 0.94000000
vt 0.27600000 0.83840000
vt 0.27930000 0.76530000
vt 0.29760000 0.89930000
vt 0.29810000 0.85260000
vt 0.30190000 0.92240000
vt 0.30240000 0.94940000
vt 0.31170000 0.93080000
vt 0.32060000 0.84720000
vt 0.33320000 0.75700000
vt 0.34090000 0.79010000
vt 0.34120000 0.77220000
vt 0.34180000 0.81390000
vt 0.34350000 0.92920000
vt 0.34610000 0.93710000
vt 0.34680000 0.92590000
vt 0.34960000 0.84890000
vt 0.35520000 0.88260000
vt 0.36900000 0.80730000
vt 0.37220000 0.74980000
vt 0.37880000 0.77770000
vt 0.37980000 0.85400000
vt 0.38040000 0.76640000
vt 0.38820000 0.88700000
vt 0.39560000 0.91120000
vt 0.39850000 0.80330000
vt 0.41100000 0.74940000
vt 0.41130000 0.78380000
vt 0.41620000 0.93320000
vt 0.42220000 0.85460000
vt 0.42740000 0.88980000
vt 0.43240000 0.81660000
vt 0.43640000 0.76460000
vt 0.44510000 0.92480000
vt 0.45230000 0.88230000
vt 0.45380000 0.83320000
vt 0.45440000 0.77750000
vt 0.45610000 0.85670000
vt 0.46550000 0.90900000
vt 0.46680000 0.79510000
vt 0.47430000 0.88360000
vt 0.47620000 0.81630000
vt 0.47910000 0.84580000
vn 0.25581028 0.96664163 -1.2847292e-2
vn -3.6486990e-2 0.73587002 -0.67613905
vn -0.88164626 -7.7014849e-2 -0.46558412
vn -3.4757358e-2 0.23629474 -0.97105959
vn 0.28603125 -0.30670731 0.90780876
vn 0.51269211 5.4769073e-2 0.85682387
vn 0.40802875 0.67451739 0.61525510
vn -0.62855717 0.77567049 5.7019138e-2
vn -0.17427384 -0.48137577 0.85901455
vn -0.79137232 0.59609501 0.13564874
vn 0.96157697 0.11342678 0.25000820
vn 0.91643594 9.4371165e-2 0.38889492
vn 0.87104486 4.2058140e-2 -0.48939960
vn 0.99203214 4.4645556e-2 -0.11780919
vn 0.51583173 2.5170441e-2 -0.85632007
vn 0.69076017 0.10731643 -0.71507592
vn -0.39103953 -0.18475937 -0.90163854
vn -0.41332525 -0.19070410 -0.89038991
vn -0.10928744 -0.11036792 -0.98786395
vn -0.98175596 -0.18930925 1.7811440e-2
vn -0.88913633 -0.32809497 -0.31904588
vn -0.89107856 -0.35362237 0.28448236
vn -0.87932816 -0.37385156 -0.29498643
vn -0.54553775 -0.44671852 0.70910587
vn -0.18352316 -0.18788932 0.96489215
vn 0.47655967 -2.2840987e-2 0.87884536
vn 0.56557095 2.9086305e-2 0.82418656
vn 0.94463051 0.19783195 0.26179326
vn -0.75080063 -8.7081946e-2 0.65476343
vn 5.3233487e-2 8.2994975e-3 0.99854760
vn 0.57722725 0.16203941 0.80034488
vn 0.55450494 -5.0541069e-2 0.83064425
vn -7.9757591e-2 -0.10062236 0.99172268
vn 0.74423546 8.9182705e-2 0.66193657
vn 0.98839046 0.12777779 8.2201755e-2
vn 0.29651706 0.68106539 -0.66949800
vn 0.71962945 0.18830519 -0.66833720
vn 0.97915591 0.19003953 7.1684558e-2
vn 0.76644528 0.63816607 7.2840213e-2
vn -0.90461633 0.18713852 0.38294709
vn 0.98823882 6.0650776e-2 0.14037638
vn 0.68388575 3.9255892e-2 -0.72853226
vn 0.50924776 0.11732471 -0.85258526
vn -0.23872180 -0.14016128 -0.96091972
vn -0.24537057 -1.8730112e-3 -0.96942755
vn -0.67343653 -0.15528113 -0.72275238
vn 0.98079276 0.12664844 -0.14834328
vn -0.84385437 -0.18908764 -0.50215104
vn -0.94683736 1.4626643e-3 -0.32170931
vn -0.38732870 -0.34976658 -0.85301806
vn 0.55367506 7.1309505e-2 -0.82967396
vn 0.91866968 4.0648040e-2 0.39292972
vn 0.98436728 0.11293900 -0.13515118
vn 0.52516912 0.60046284 0.60302717
g TORSO_Mat.003
usemtl Mat.003
s 1
f 1/60/1 36/53/36 2/59/2
f 1/60/1 39/55/39 36/53/36
f 1/60/1 54/52/54 39/55/39
f 2/59/2 36/53/36 4/57/4
f 3/54/3 45/45/45 44/38/44
f 3/54/3 49/40/49 10/50/10
f 4/57/4 45/45/45 3/54/3
f 5/51/5 32/41/32 6/56/6
f 5/51/5 33/42/33 32/41/32
f 6/56/6 54/52/54 7/58/7
f 7/58/7 54/52/54 1/60/1
f 9/46/9 33/42/33 5/51/5
f 9/46/9 40/33/40 33/42/33
f 10/50/10 40/37/40 8/44/8
f 10/50/10 49/40/49 40/37/40
f 11/26/11 27/21/27 12/22/12
f 11/26/11 41/34/41 27/21/27
f 12/22/12 13/30/13 11/26/11
f 12/22/12 14/19/14 13/30/13
f 12/22/12 27/21/27 26/10/26
f 12/22/12 52/12/52 14/19/14
f 13/30/13 41/34/41 11/26/11
f 13/30/13 42/36/42 41/34/41
f 14/19/14 15/17/15 13/30/13
f 14/19/14 16/7/16 15/17/15
f 14/19/14 53/8/53 16/7/16
f 15/17/15 19/28/19 13/30/13
f 16/7/16 17/9/17 15/17/15
f 16/7/16 51/4/51 17/9/17
f 16/7/16 53/8/53 51/4/51
f 17/9/17 18/15/18 15/17/15
f 17/9/17 21/20/21 18/15/18
f 17/9/17 23/6/23 21/20/21
f 17/9/17 46/1/46 23/6/23
f 17/9/17 50/3/50 46/1/46
f 17/9/17 51/4/51 50/3/50
f 18/15/18 19/28/19 15/17/15
f 18/15/18 48/29/48 19/28/19
f 19/28/19 42/36/42 13/30/13
f 19/28/19 44/38/44 42/36/42
f 19/28/19 49/40/49 44/38/44
f 20/27/20 48/29/48 21/20/21
f 20/24/20 49/31/49 48/32/48
f 21/18/21 22/16/22 20/24/20
f 21/18/21 23/13/23 22/16/22
f 21/20/21 48/29/48 18/15/18
f 22/16/22 29/25/29 20/24/20
f 23/13/23 24/11/24 22/16/22
f 24/11/24 25/14/25 22/16/22
f 24/11/24 26/10/26 25/14/25
f 25/14/25 29/25/29 22/16/22
f 25/14/25 30/23/30 29/25/29
f 26/10/26 27/21/27 25/14/25
f 26/10/26 52/12/52 12/22/12
f 27/21/27 30/23/30 25/14/25
f 27/21/27 31/35/31 30/23/30
f 27/21/27 41/34/41 31/35/31
f 28/2/28 52/12/52 26/10/26
f 28/2/28 53/8/53 52/12/52
f 29/25/29 40/33/40 20/24/20
f 30/23/30 33/42/33 29/25/29
f 31/35/31 33/42/33 30/23/30
f 31/35/31 35/39/35 32/41/32
f 31/35/31 41/34/41 35/39/35
f 32/41/32 33/42/33 31/35/31
f 32/41/32 34/48/34 6/56/6
f 32/41/32 35/39/35 34/48/34
f 33/42/33 40/33/40 29/25/29
f 34/48/34 54/52/54 6/56/6
f 35/39/35 38/47/38 34/48/34
f 35/39/35 43/43/43 37/49/37
f 36/53/36 37/49/37 4/57/4
f 36/53/36 39/55/39 37/49/37
f 37/49/37 38/47/38 35/39/35
f 37/49/37 39/55/39 38/47/38
f 37/49/37 43/43/43 4/57/4
f 38/47/38 39/55/39 34/48/34
f 39/55/39 54/52/54 34/48/34
f 40/37/40 49/40/49 20/27/20
f 41/34/41 42/36/42 35/39/35
f 42/36/42 43/43/43 35/39/35
f 42/36/42 44/38/44 43/43/43
f 43/43/43 45/45/45 4/57/4
f 44/38/44 45/45/45 43/43/43
f 44/38/44 49/40/49 3/54/3
f 47/5/47 53/8/53 28/2/28
f 48/29/48 49/40/49 19/28/19
f 51/4/51 53/8/53 47/5/47
f 52/12/52 53/8/53 14/19/14
