# Exported from Wings 3D 2.3
mtllib brazo_der.mtl
o TORSO
#52 vertices, 85 faces
v -0.18640000 1.20830000 -0.12800000
v -0.21190000 1.22550000 -0.15230000
v -0.19670000 1.26460000 -0.16430000
v -0.17400000 1.26570000 -0.12970000
v -0.18620000 1.23650000 -0.12620000
v -0.15940000 1.33450000 -0.11830000
v -0.16310000 1.33750000 -0.14590000
v -0.16990000 1.48870000 -0.17060000
v -0.16680000 1.52700000 -0.15640000
v -0.16540000 1.41560000 -0.15550000
v -0.17160000 1.39480000 -0.11880000
v -0.17230000 1.54000000 -0.11680000
v -0.16440000 1.48450000 -5.5100000e-2
v -0.17940000 1.52040000 -8.0900000e-2
v -0.16830000 1.44920000 -5.9600000e-2
v -0.17630000 1.48340000 -5.7900000e-2
v -0.16620000 1.39530000 -8.1300000e-2
v -0.16280000 1.42190000 -6.9500000e-2
v -0.17450000 1.26460000 -9.4000000e-2
v -0.19520000 1.23510000 -8.4900000e-2
v -0.19860000 1.21140000 -8.5300000e-2
v -0.20880000 1.51130000 -8.4200000e-2
v -0.18570000 1.42140000 -0.18530000
v -0.22430000 1.41270000 -0.16210000
v -0.23450000 1.38430000 -0.15840000
v -0.18770000 1.38270000 -0.17560000
v -0.15500000 1.37970000 -0.10120000
v -0.18990000 1.26220000 -7.8900000e-2
v -0.22030000 1.34000000 -8.4000000e-2
v -0.22190000 1.24170000 -8.6900000e-2
v -0.24620000 1.47040000 -0.11410000
v -0.23310000 1.47070000 -0.15640000
v -0.24280000 1.40530000 -0.12060000
v -0.17180000 1.34310000 -8.4100000e-2
v -0.18180000 1.39130000 -8.2700000e-2
v -0.21500000 1.41360000 -9.0900000e-2
v -0.22180000 1.47420000 -8.1400000e-2
v -0.22960000 1.51660000 -0.11550000
v -0.21850000 1.51290000 -0.15320000
v -0.24840000 1.37450000 -0.11570000
v -0.22520000 1.38880000 -8.8200000e-2
v -0.18720000 1.34310000 -7.3300000e-2
v -0.24350000 1.23350000 -0.15460000
v -0.25270000 1.26110000 -0.13130000
v -0.24530000 1.26200000 -0.15650000
v -0.23750000 1.35870000 -0.14580000
v -0.19620000 1.35240000 -0.16980000
v -0.15660000 1.37200000 -0.14540000
v -0.25070000 1.23120000 -0.13690000
v -0.24760000 1.24980000 -0.11290000
v -0.25040000 1.31350000 -0.10410000
v -0.24460000 1.34510000 -0.11080000
vt 2.5000000e-2 0.43470000
vt 3.3800000e-2 0.48780000
vt 3.7600000e-2 0.45960000
vt 5.5600000e-2 0.46450000
vt 0.71880000 0.94900000
vt 0.73290000 0.92520000
vt 0.74170000 0.77880000
vt 0.74330000 0.81040000
vt 0.74480000 0.82120000
vt 0.74600000 0.82970000
vt 0.76030000 0.88940000
vt 0.76710000 0.86370000
vt 0.77260000 0.92310000
vt 0.77510000 0.94350000
vt 0.78110000 0.91820000
vt 0.78520000 0.81860000
vt 0.78650000 0.83800000
vt 0.78830000 0.92920000
vt 0.79070000 0.79580000
vt 0.79290000 0.76530000
vt 0.79640000 0.94230000
vt 0.81170000 0.85260000
vt 0.81260000 0.89710000
vt 0.81710000 0.91360000
vt 0.82690000 0.92740000
vt 0.82950000 0.93820000
vt 0.83420000 0.84720000
vt 0.84840000 0.75810000
vt 0.85480000 0.77860000
vt 0.85500000 0.81350000
vt 0.85940000 0.92570000
vt 0.86060000 0.85240000
vt 0.86140000 0.79480000
vt 0.86380000 0.87340000
vt 0.87290000 0.91130000
vt 0.87690000 0.92880000
vt 0.88340000 0.81210000
vt 0.88470000 0.74670000
vt 0.88740000 0.84970000
vt 0.88900000 0.89100000
vt 0.89350000 0.76590000
vt 0.89880000 0.78100000
vt 0.90110000 0.93050000
vt 0.91150000 0.80950000
vt 0.92490000 0.78380000
vt 0.92790000 0.92760000
vt 0.92880000 0.75140000
vt 0.93100000 0.85600000
vt 0.93530000 0.88930000
vt 0.93900000 0.76020000
vt 0.94150000 0.82780000
vt 0.94940000 0.77200000
vt 0.95370000 0.92000000
vt 0.95820000 0.88610000
vt 0.96220000 0.85480000
vt 0.96580000 0.83080000
vt 0.96760000 0.79030000
vt 0.96930000 0.90430000
vt 0.98510000 0.81080000
vt 0.98920000 0.87240000
vn 0.96076627 -2.4448815e-2 0.27627962
vn 0.40168023 -0.31973435 -0.85815088
vn 0.42572843 -0.24022855 -0.87237925
vn 0.89970427 -0.31878983 -0.29816988
vn 0.94936134 -0.31370458 1.7391983e-2
vn 0.98342982 -0.16594604 7.2991154e-2
vn 0.83222715 -0.16125054 -0.53046794
vn -8.6282246e-2 0.18800640 -0.97837057
vn -0.23037354 0.68867479 -0.68749914
vn 0.89900368 -7.2550816e-3 -0.43788097
vn 0.83462612 0.55059682 1.5568824e-2
vn -0.34400447 0.93665457 6.5872127e-2
vn -0.24224858 0.20907851 0.94741849
vn -0.27674802 0.64047449 0.71638185
vn -0.29436299 -0.22034533 0.92994536
vn -0.36540153 0.13856076 0.92047957
vn 6.3030767e-2 0.80235609 -0.59350806
vn -0.33350129 -0.40981406 0.84901668
vn 0.89820669 -0.28375687 0.33571830
vn 0.71615259 -0.34702216 0.60555850
vn 0.96672215 -8.3604033e-2 0.24178224
vn -0.46543318 0.59723549 0.65320879
vn 0.20943135 -5.0906345e-2 -0.97649734
vn -0.61587765 6.3399873e-2 -0.78528669
vn -0.74150286 -9.6985306e-3 -0.67087960
vn 0.18837266 -0.16156548 -0.96871685
vn 0.93277185 0.24389475 0.26542801
vn 0.24917729 -0.14027741 0.95824471
vn -0.53006071 3.2561334e-2 0.84733430
vn -0.42152158 -9.3353894e-2 0.90200034
vn -0.97646830 0.14011763 0.16394115
vn -0.78306871 0.14236062 -0.60542287
vn -0.98332052 8.7291958e-2 0.15956461
vn 0.73983924 -5.2352425e-2 0.67074371
vn 0.11863563 -9.4118203e-2 0.98846717
vn -0.50020798 -4.6280217e-2 0.86466763
vn -0.68712154 6.4001623e-2 0.72371803
vn -0.79464330 0.59098546 0.13884597
vn -0.45750786 0.62346115 -0.63402110
vn -0.98051546 2.7884885e-2 0.19445271
vn -0.51391875 0.17783521 0.83920329
vn 8.7447815e-2 4.8206718e-2 0.99500201
vn -0.73966389 -5.4166475e-2 -0.67079305
vn -0.99330856 -2.1685555e-3 -0.11547034
vn -0.51577892 -3.9282658e-2 -0.85582065
vn -0.89970825 -3.4413590e-3 -0.43647820
vn 3.8810065e-2 -0.13225629 -0.99045548
vn 0.92199756 3.4975348e-2 -0.38561278
vn -0.99478822 -4.9886036e-2 -8.8925710e-2
vn -0.91864083 -0.10419179 0.38110773
vn -0.91629988 6.2276903e-2 0.39562117
vn -0.95935198 7.7100634e-2 0.27147609
g TORSO_Mat.003
usemtl Mat.003
s 1
f 2/8/2 45/16/45 3/19/3
f 3/19/3 4/20/4 2/8/2
f 3/19/3 7/29/7 4/20/4
f 3/19/3 47/33/47 7/29/7
f 4/20/4 5/7/5 2/8/2
f 4/20/4 7/29/7 6/28/6
f 4/21/4 19/18/19 5/14/5
f 5/14/5 21/6/21 1/5/1
f 6/26/6 19/18/19 4/21/4
f 6/26/6 34/25/34 19/18/19
f 6/28/6 48/41/48 27/38/27
f 7/31/7 48/25/48 6/26/6
f 8/57/8 39/56/39 9/59/9
f 9/59/9 39/56/39 12/60/12
f 10/52/10 23/45/23 8/57/8
f 10/52/10 26/42/26 23/45/23
f 10/52/10 48/41/48 26/42/26
f 11/50/11 48/41/48 10/52/10
f 12/60/12 22/54/22 14/58/14
f 12/60/12 38/55/38 22/54/22
f 12/60/12 39/56/39 38/55/38
f 13/4/13 16/3/16 15/1/15
f 14/2/14 16/3/16 13/4/13
f 14/58/14 22/54/22 16/53/16
f 15/46/15 35/35/35 18/43/18
f 15/46/15 36/40/36 35/35/35
f 16/53/16 36/40/36 15/46/15
f 16/53/16 37/49/37 36/40/36
f 17/47/17 27/38/27 11/50/11
f 18/43/18 27/31/27 17/36/17
f 18/43/18 35/35/35 27/31/27
f 19/18/19 20/13/20 5/14/5
f 19/18/19 28/15/28 20/13/20
f 19/18/19 34/25/34 28/15/28
f 20/13/20 21/6/21 5/14/5
f 22/54/22 37/49/37 16/53/16
f 22/54/22 38/55/38 37/49/37
f 23/45/23 24/44/24 8/57/8
f 23/45/23 26/42/26 24/44/24
f 24/44/24 26/42/26 25/37/25
f 24/44/24 32/51/32 8/57/8
f 24/44/24 33/39/33 32/51/32
f 25/37/25 33/39/33 24/44/24
f 25/37/25 40/32/40 33/39/33
f 25/37/25 46/30/46 40/32/40
f 25/37/25 47/33/47 46/30/46
f 26/42/26 47/33/47 25/37/25
f 26/42/26 48/41/48 47/33/47
f 27/31/27 34/25/34 6/26/6
f 27/31/27 35/35/35 34/25/34
f 27/38/27 48/41/48 11/50/11
f 28/15/28 30/11/30 20/13/20
f 28/15/28 42/24/42 29/23/29
f 29/23/29 30/11/30 28/15/28
f 29/23/29 41/34/41 40/32/40
f 29/23/29 42/24/42 41/34/41
f 29/23/29 51/22/51 30/11/30
f 29/23/29 52/27/52 51/22/51
f 30/11/30 51/22/51 50/12/50
f 31/48/31 38/55/38 32/51/32
f 32/51/32 33/39/33 31/48/31
f 32/51/32 39/56/39 8/57/8
f 33/39/33 37/49/37 31/48/31
f 33/39/33 41/34/41 36/40/36
f 34/25/34 42/24/42 28/15/28
f 35/35/35 42/24/42 34/25/34
f 36/40/36 37/49/37 33/39/33
f 36/40/36 41/34/41 35/35/35
f 37/49/37 38/55/38 31/48/31
f 38/55/38 39/56/39 32/51/32
f 40/32/40 41/34/41 33/39/33
f 40/32/40 52/27/52 29/23/29
f 41/34/41 42/24/42 35/35/35
f 43/9/43 45/16/45 2/8/2
f 43/9/43 49/10/49 44/17/44
f 44/17/44 45/16/45 43/9/43
f 44/17/44 46/30/46 45/16/45
f 44/17/44 51/22/51 46/30/46
f 45/16/45 47/33/47 3/19/3
f 46/30/46 47/33/47 45/16/45
f 46/30/46 52/27/52 40/32/40
f 47/33/47 48/41/48 7/29/7
f 49/10/49 50/12/50 44/17/44
f 50/12/50 51/22/51 44/17/44
f 51/22/51 52/27/52 46/30/46
