# Exported from Wings 3D 2.3
mtllib cintura.mtl
o PIERNAS
#87 vertices, 110 faces
v -5.3700000e-2 0.96290000 -0.21300000
v -9.2400000e-2 0.96470000 -0.19700000
v -0.12820000 0.96560000 -0.15920000
v -4.2200000e-2 1.11610000 -0.16320000
v -7.3100000e-2 1.11770000 -0.15430000
v -7.2800000e-2 1.12700000 -0.15460000
v -0.10660000 1.11390000 -0.11340000
v -0.10630000 1.12330000 -0.11360000
v 9.3000000e-3 1.11370000 -0.16690000
v -4.1900000e-2 1.12540000 -0.16340000
v 0.13410000 1.10410100 -0.12490000
v 9.7200000e-2 1.11080100 -0.16250000
v 9.7500000e-2 1.12010000 -0.16270000
v 5.7200000e-2 1.11200100 -0.16790000
v 5.7600000e-2 1.12130100 -0.16820000
v 9.7000000e-3 1.12300000 -0.16720000
v 0.15420000 1.10290000 -7.8600000e-2
v 0.13440000 1.11350000 -0.12520000
v 0.14440000 1.10060100 -3.9300000e-2
v 0.15460000 1.11230000 -7.8900000e-2
v 0.12110000 1.09780100 3.2990000e-3
v 0.14470000 1.10980000 -3.9500000e-2
v 2.0700000e-2 1.10820000 4.6700000e-2
v 7.0900000e-2 1.10190000 2.6700000e-2
v 7.1200000e-2 1.11120000 2.6400000e-2
v 0.12150000 1.10710000 3.0000000e-3
v -8.1600000e-2 1.11530000 1.2699000e-2
v -8.2000000e-2 1.10600000 1.3099000e-2
v -2.9200000e-2 1.11530000 3.1099000e-2
v -2.9500000e-2 1.10600000 3.1399000e-2
v 2.1100000e-2 1.11730000 4.6400000e-2
v -0.10890000 1.11090000 -2.7100000e-2
v -0.10860000 1.12020000 -2.7500000e-2
v -0.12230000 1.11420000 -6.5400000e-2
v -0.12200000 1.12350000 -6.5700000e-2
v -3.0600000e-2 1.11220000 3.4199000e-2
v -4.2700000e-2 1.04780000 5.4899000e-2
v 2.1100000e-2 1.11440000 4.9900000e-2
v 1.9300000e-2 1.04620100 6.4899000e-2
v -0.10630000 1.05510000 2.6999000e-2
v -8.4500000e-2 1.11220000 1.5199000e-2
v -0.13640000 1.05680000 -1.6600000e-2
v -0.11220000 1.11720000 -2.6100000e-2
v -0.16040000 1.06340000 -7.6000000e-2
v -0.12090000 1.06720000 -0.13270000
v -0.12600000 1.12070000 -6.5500000e-2
v -7.5400000e-2 1.12430000 -0.15690000
v -0.10990000 1.12040000 -0.11480000
v -5.1500000e-2 0.95940000 6.8399000e-2
v -0.12200000 0.95570000 3.3799000e-2
v -0.15820000 0.96070000 -1.6100000e-2
v 2.6600000e-2 0.95630100 9.0800000e-2
v -0.17520000 0.96510000 -8.2100000e-2
v -0.12470000 1.02050000 -0.14090000
v -9.0800000e-2 1.06690000 -0.16600000
v -5.0600000e-2 1.06700000 -0.19100000
v -4.3600000e-2 1.12260000 -0.16590000
v 9.4000000e-3 1.12020000 -0.16980000
v 3.8000000e-3 1.06310000 -0.19110000
v -5.2400000e-2 1.01810000 -0.19980000
v -3.8000000e-3 1.01020000 -0.19840000
v -7.0000000e-4 0.95840000 -0.21090000
v -9.1800000e-2 1.01940000 -0.17760000
v 9.6200000e-2 0.94630000 -0.19000000
v 0.14270000 0.94420000 -0.16410000
v 0.16940000 0.94790000 1.0900000e-2
v 0.19180000 0.94820100 -4.0100000e-2
v 0.19510000 0.94530000 -9.1300000e-2
v 0.14590000 1.00850000 -0.15170000
v 9.8300000e-2 1.01180100 -0.17490000
v 0.10570000 0.95570000 6.8399000e-2
v 5.6500000e-2 1.01510000 -0.19580000
v 5.1400000e-2 0.94970000 -0.20640000
v 0.12440000 1.10380000 5.3000000e-3
v 7.2700000e-2 1.10810100 2.9200000e-2
v 8.1800000e-2 1.04450000 4.9900000e-2
v 0.14830000 1.10670100 -3.8600000e-2
v 0.14170000 1.04510100 1.7800000e-2
v 9.9700000e-2 1.11720000 -0.16520000
v 0.13770000 1.11030000 -0.12660000
v 0.14130000 1.05180100 -0.14470000
v 0.15840000 1.10910000 -7.9100000e-2
v 0.18270000 1.04600000 -8.7700000e-2
v 0.16760000 1.04550100 -1.9500000e-2
v 0.10500000 1.05540000 -0.17120000
v 5.7800000e-2 1.05800000 -0.19230000
v 5.8700000e-2 1.11850100 -0.17090000
vt 2.9600000e-2 0.97600000
vt 3.2800000e-2 0.99140000
vt 5.1000000e-2 0.90280000
vt 5.1200000e-2 0.90270000
vt 5.1500000e-2 0.99580000
vt 5.1600000e-2 0.84460000
vt 5.1700000e-2 0.94590000
vt 5.4900000e-2 0.84050000
vt 5.6600000e-2 0.94990000
vt 5.6600000e-2 0.99580000
vt 5.8700000e-2 0.99140000
vt 6.0200000e-2 0.97600000
vt 7.8900000e-2 0.97590000
vt 8.7600000e-2 0.99140000
vt 0.11120000 0.97590000
vt 0.12330000 0.99140000
vt 0.16760000 0.83070000
vt 0.17130000 0.99140000
vt 0.17620000 0.97580000
vt 0.18200000 0.83140000
vt 0.19330000 0.90320000
vt 0.20570000 0.90470000
vt 0.22460000 0.94840000
vt 0.23030000 0.94900000
vt 0.23030000 0.97570000
vt 0.23360000 0.99130000
vt 0.23960000 0.99290000
vt 0.24910000 0.99270000
vt 0.26180000 0.82990000
vt 0.27450000 0.83130000
vt 0.28330000 0.97580000
vt 0.28940000 0.89940000
vt 0.30440000 0.90040000
vt 0.30540000 0.99140000
vt 0.30860000 0.99350000
vt 0.31190000 0.94900000
vt 0.31410000 0.95020000
vt 0.35940000 0.97580000
vt 0.36400000 0.99130000
vt 0.37210000 0.83400000
vt 0.38310000 0.83600000
vt 0.38320000 0.90430000
vt 0.38970000 0.90560000
vt 0.39290000 0.99130000
vt 0.39740000 0.95150000
vt 0.39860000 0.94970000
vt 0.40180000 0.97580000
vt 0.40200000 0.99550000
vt 0.41480000 0.99600000
vt 0.43100000 0.97580000
vt 0.43260000 0.99130000
vt 0.46700000 0.99140000
vt 0.47060000 0.97590000
vt 0.49370000 0.94910000
vt 0.49400000 0.94280000
vt 0.49720000 0.99530000
vt 0.49740000 0.87060000
vt 0.49760000 0.86030000
vt 0.49810000 0.99830000
vt 0.55460000 0.85240000
vt 0.55490000 0.84620000
vt 0.55810000 0.94360000
vt 0.55870000 0.94800000
vt 0.56610000 0.99600000
vt 0.56720000 0.99720000
vt 0.56870000 0.99720000
vt 0.56910000 0.97590000
vt 0.57780000 0.99140000
vt 0.60850000 0.83130000
vt 0.61080000 0.82770000
vt 0.62230000 0.94580000
vt 0.62390000 0.94810000
vt 0.62800000 0.99690000
vt 0.64330000 0.97600000
vt 0.64500000 0.99140000
vt 0.66220000 0.99760000
vt 0.69760000 0.97600000
vt 0.70470000 0.99140000
vt 0.75840000 0.97600000
vt 0.77050000 0.99140000
vt 0.77350000 0.94230000
vt 0.77680000 0.99750000
vt 0.78080000 0.99750000
vt 0.79170000 0.94680000
vt 0.79520000 0.80590000
vt 0.82150000 0.82310000
vt 0.83430000 0.99140000
vt 0.84480000 0.97590000
vt 0.85240000 0.99800000
vt 0.85400000 0.94060000
vt 0.85410000 0.94090000
vt 0.90780000 0.81140000
vt 0.93940000 0.97590000
vt 0.94350000 0.99140000
vt 0.95000000 0.94190000
vt 0.95020000 0.94170000
vt 0.95040000 0.99540000
vt 0.98130000 0.82590000
vn -0.18065905 0.25817389 -0.94905666
vn -0.60096976 0.27980451 -0.74869539
vn -0.76936288 0.24561724 -0.58970581
vn -0.20924462 -1.7734826e-2 -0.97770249
vn -0.55070132 -9.1597029e-3 -0.83465211
vn -0.55032008 -4.7244101e-3 -0.83494041
vn -0.84568718 1.3374548e-2 -0.53351131
vn -0.90522532 1.8810770e-2 -0.42451534
vn -4.7823573e-2 -2.7665382e-2 -0.99847260
vn -0.14123457 -2.0049713e-2 -0.98977311
vn 0.79003183 -4.2341614e-2 -0.61160192
vn 0.44515052 -3.3606854e-2 -0.89482490
vn 0.44513719 -3.8668507e-2 -0.89462709
vn 8.2344258e-2 -3.1636011e-2 -0.99610169
vn 3.0550471e-2 -3.3538850e-2 -0.99897038
vn -4.8378837e-2 -3.0124824e-2 -0.99837467
vn 0.97967095 -4.4524061e-2 -0.19560787
vn 0.85943884 -4.6973499e-2 -0.50907601
vn 0.94615769 -2.6260422e-2 0.32263913
vn 0.99882888 -3.9081260e-2 2.8522457e-2
vn 0.68477950 -3.7094625e-3 0.72874088
vn 0.91514403 -2.2490244e-2 0.40249918
vn 4.2131847e-2 3.0961190e-2 0.99863222
vn 0.39790370 1.6753887e-2 0.91727420
vn 0.39770690 1.4679448e-2 0.91739508
vn 0.68474684 -6.0222228e-3 0.72875614
vn -0.60841093 6.0204140e-2 0.79133533
vn -0.60867051 5.4282123e-2 0.79156406
vn -0.31130961 4.5109874e-2 0.94923729
vn -0.31095911 4.0661684e-2 0.94955309
vn 4.2341793e-2 3.1060369e-2 0.99862026
vn -0.91006067 4.5871575e-2 0.41192885
vn -0.87091997 5.2091156e-2 0.48865624
vn -0.99441551 2.9893515e-2 -0.10121347
vn -0.99152095 3.7257577e-2 0.12449130
vn -0.29934412 0.34249360 0.89055670
vn -0.30001861 0.24276476 0.92252594
vn 4.7731844e-2 0.28569991 0.95712968
vn 2.8704399e-2 0.23520257 0.97152242
vn -0.66269010 0.27214602 0.69769505
vn -0.48334979 0.36330174 0.79648279
vn -0.86349062 0.26302748 0.43034927
vn -0.79508899 0.40616823 0.45040079
vn -0.93637316 0.33898986 -9.1055902e-2
vn -0.78364485 0.30240060 -0.54263673
vn -0.88154941 0.44588506 -0.15510366
vn -0.56351265 0.34295905 -0.75155345
vn -0.83668888 0.32204917 -0.44298538
vn -0.28644291 0.19848423 0.93731237
vn -0.55445415 0.16002791 0.81668333
vn -0.85797771 0.19130613 0.47673494
vn 2.6283680e-3 0.27704402 0.96085363
vn -0.97353148 0.19659039 -0.11657047
vn -0.76612880 0.20095354 -0.61046240
vn -0.64518694 0.22699960 -0.72952382
vn -0.25795242 0.29821359 -0.91898270
vn -0.13731334 0.42186688 -0.89619941
vn -5.5701673e-3 0.36170938 -0.93227426
vn 1.8994840e-2 0.20392312 -0.97880261
vn -0.17155913 0.19176470 -0.96633005
vn 5.9864978e-2 0.18819221 -0.98030601
vn 9.0945007e-2 0.23874713 -0.96681374
vn -0.55328248 0.22569864 -0.80183454
vn 0.42676981 0.17703682 -0.88686272
vn 0.66341577 0.10972140 -0.74016264
vn 0.70138393 0.21438202 0.67978006
vn 0.91944611 0.18529530 0.34682057
vn 0.96180916 0.14424041 -0.23263242
vn 0.65415625 0.15276739 -0.74077104
vn 0.45635671 0.11250901 -0.88265524
vn 0.39405957 0.29558625 0.87025618
vn 0.23188164 9.3806056e-2 -0.96821037
vn 0.24262391 0.17932701 -0.95340205
vn 0.57931658 0.33943562 0.74106393
vn 0.40204638 0.33488120 0.85218149
vn 0.41305256 0.26607955 0.87097030
vn 0.85947749 0.35727111 0.36558965
vn 0.72861936 0.24878128 0.63813925
vn 0.48008156 0.21373649 -0.85078693
vn 0.81983172 0.21469500 -0.53083142
vn 0.70912169 0.18607493 -0.68009011
vn 0.92182968 0.30708885 -0.23648780
vn 0.94821179 0.26409088 -0.17649477
vn 0.91438364 0.24361007 0.32335227
vn 0.49313887 6.0014413e-2 -0.86787806
vn 0.16240731 0.21845761 -0.96223705
vn 6.5556232e-2 0.33188299 -0.94103988
g PIERNAS_Mat.001
usemtl Mat.001
s 1
f 1/20/1 63/33/63 60/22/60
f 2/30/2 63/33/63 1/20/1
f 3/41/3 54/42/54 2/30/2
f 4/79/4 10/80/10 9/77/9
f 5/88/5 6/87/6 4/79/4
f 5/88/5 7/93/7 6/87/6
f 6/87/6 10/80/10 4/79/4
f 7/93/7 8/94/8 6/87/6
f 7/1/7 34/12/34 8/2/8
f 9/77/9 15/75/15 14/74/14
f 9/77/9 16/78/16 15/75/15
f 10/80/10 16/78/16 9/77/9
f 11/53/11 18/52/18 17/50/17
f 12/67/12 13/68/13 11/53/11
f 12/67/12 14/74/14 13/68/13
f 13/68/13 18/52/18 11/53/11
f 14/74/14 15/75/15 13/68/13
f 17/50/17 20/51/20 19/47/19
f 18/52/18 20/51/20 17/50/17
f 19/47/19 22/44/22 21/38/21
f 20/51/20 22/44/22 19/47/19
f 21/38/21 25/34/25 24/31/24
f 21/38/21 26/39/26 25/34/25
f 22/44/22 26/39/26 21/38/21
f 23/25/23 31/26/31 29/18/29
f 24/31/24 25/34/25 23/25/23
f 25/34/25 31/26/31 23/25/23
f 27/16/27 33/14/33 28/15/28
f 28/15/28 29/18/29 27/16/27
f 28/15/28 30/19/30 29/18/29
f 28/15/28 33/14/33 32/13/32
f 29/18/29 30/19/30 23/25/23
f 32/13/32 35/11/35 34/12/34
f 33/14/33 35/11/35 32/13/32
f 34/12/34 35/11/35 8/2/8
f 36/82/36 41/73/41 37/81/37
f 37/81/37 38/89/38 36/82/36
f 37/81/37 39/91/39 38/89/38
f 37/81/37 41/73/41 40/71/40
f 37/81/37 49/85/49 39/90/39
f 37/81/37 50/69/50 49/85/49
f 38/97/38 76/84/76 75/83/75
f 39/96/39 76/84/76 38/97/38
f 40/71/40 43/66/43 42/62/42
f 40/71/40 50/69/50 37/81/37
f 40/71/40 51/60/51 50/69/50
f 41/73/41 43/66/43 40/71/40
f 42/62/42 51/60/51 40/71/40
f 42/62/42 53/57/53 51/60/51
f 43/65/43 44/55/44 42/62/42
f 43/65/43 46/56/46 44/55/44
f 44/55/44 46/56/46 45/46/45
f 44/55/44 53/57/53 42/62/42
f 44/55/44 54/42/54 53/57/53
f 45/46/45 48/49/48 47/35/47
f 45/46/45 54/42/54 44/55/44
f 45/46/45 55/36/55 54/42/54
f 46/56/46 48/49/48 45/46/45
f 47/35/47 55/36/55 45/46/45
f 47/35/47 56/23/56 55/36/55
f 47/35/47 57/28/57 56/23/56
f 49/85/49 52/92/52 39/90/39
f 52/98/52 71/86/71 39/95/39
f 53/57/53 54/42/54 3/41/3
f 54/42/54 63/33/63 2/30/2
f 55/36/55 63/33/63 54/42/54
f 56/23/56 63/33/63 55/36/55
f 57/28/57 58/5/58 56/23/56
f 58/5/58 59/7/59 56/23/56
f 58/10/58 86/24/86 59/9/59
f 58/10/58 87/27/87 86/24/86
f 59/7/59 60/22/60 56/23/56
f 59/7/59 61/4/61 60/22/60
f 59/9/59 72/21/72 61/3/61
f 59/9/59 86/24/86 72/21/72
f 60/22/60 61/4/61 1/20/1
f 60/22/60 63/33/63 56/23/56
f 61/4/61 62/6/62 1/20/1
f 61/3/61 73/17/73 62/8/62
f 64/29/64 69/43/69 65/40/65
f 64/29/64 70/32/70 69/43/69
f 64/29/64 73/17/73 70/32/70
f 65/40/65 69/43/69 68/58/68
f 66/70/66 76/84/76 71/86/71
f 66/70/66 78/72/78 76/84/76
f 67/61/67 78/72/78 66/70/66
f 67/61/67 84/63/84 78/72/78
f 68/58/68 84/63/84 67/61/67
f 69/43/69 83/54/83 68/58/68
f 70/32/70 73/17/73 72/21/72
f 70/32/70 81/45/81 69/43/69
f 70/32/70 85/37/85 81/45/81
f 71/86/71 76/84/76 39/95/39
f 72/21/72 73/17/73 61/3/61
f 72/21/72 85/37/85 70/32/70
f 72/21/72 86/24/86 85/37/85
f 74/76/74 78/72/78 77/64/77
f 75/83/75 76/84/76 74/76/74
f 76/84/76 78/72/78 74/76/74
f 77/64/77 83/54/83 82/59/82
f 77/64/77 84/63/84 83/54/83
f 78/72/78 84/63/84 77/64/77
f 80/48/80 81/45/81 79/35/79
f 80/48/80 82/59/82 81/45/81
f 81/45/81 83/54/83 69/43/69
f 81/45/81 85/37/85 79/35/79
f 82/59/82 83/54/83 81/45/81
f 83/54/83 84/63/84 68/58/68
f 85/37/85 86/24/86 79/35/79
f 86/24/86 87/27/87 79/35/79
