# Exported from Wings 3D 2.3
mtllib cuello.mtl
o TORSO
#29 vertices, 32 faces
v 1.4700000e-2 1.58310000 -2.5300000e-2
v 1.2000000e-2 1.57380000 -3.6200000e-2
v 3.1600000e-2 1.58130000 -4.1500000e-2
v -1.2300000e-2 1.57120000 -4.0800000e-2
v -8.8000000e-3 1.57900000 -3.9900000e-2
v 3.4600000e-2 1.57330000 -4.2700000e-2
v -3.3800000e-2 1.58430000 -5.3600000e-2
v -2.6300000e-2 1.61020000 -3.3600000e-2
v -5.4000000e-3 1.59860000 -2.9600000e-2
v 1.4900000e-2 1.59180000 -2.3500000e-2
v 3.2000000e-2 1.60300000 -3.2300000e-2
v 4.8700000e-2 1.61890000 -3.9200000e-2
v -4.5000000e-2 1.60380000 -9.2400000e-2
v 3.8000000e-3 1.62870000 -0.13420000
v 4.2400000e-2 1.62140000 -0.11950000
v 6.5400000e-2 1.60850000 -9.6600000e-2
v -3.2500000e-2 1.64730000 -0.11650000
v -8.0000000e-4 1.65300000 -0.12790000
v 3.3400000e-2 1.65500000 -0.12140000
v 5.0900000e-2 1.65900000 -0.10540000
v 6.1800000e-2 1.66250000 -8.2500000e-2
v 6.8200000e-2 1.60170000 -7.1300000e-2
v -4.7800000e-2 1.64730000 -9.8000000e-2
v -2.6600000e-2 1.61830000 -0.11680000
v -5.5600000e-2 1.64870000 -7.3700000e-2
v -4.5300000e-2 1.59670000 -6.6900000e-2
v 5.9300000e-2 1.64370000 -5.8800000e-2
v 5.9100000e-2 1.58840000 -5.7200000e-2
v -4.5200000e-2 1.63140000 -5.1000000e-2
vt 0.14480000 0.59200000
vt 0.15210000 0.56240000
vt 0.16780000 0.59130000
vt 0.18410000 0.52910000
vt 0.19100000 0.58990000
vt 0.21140000 0.51100000
vt 0.21750000 0.53890000
vt 0.21880000 0.58660000
vt 0.24670000 0.57700000
vt 0.24750000 0.54880000
vt 0.24970000 0.52740000
vt 0.27650000 0.53800000
vt 0.27780000 0.58070000
vt 0.28090000 0.50850000
vt 0.30970000 0.58570000
vt 0.33050000 0.54310000
vt 0.35050000 0.59380000
vt 0.35290000 0.56770000
vt 0.36800000 0.60120000
vt 0.65200000 0.61360000
vt 0.66580000 0.68230000
vt 0.67060000 0.61250000
vt 0.68980000 0.68290000
vt 0.69850000 0.61270000
vt 0.71930000 0.68740000
vt 0.74540000 0.61100000
vt 0.74540000 0.68770000
vt 0.77790000 0.68470000
vt 0.79410000 0.61240000
vt 0.79870000 0.68420000
vt 0.81460000 0.68370000
vt 0.81590000 0.61260000
vt 0.84090000 0.61760000
vn 0.10343890 -0.48062703 0.87080311
vn 6.5105203e-2 -0.43166327 0.89968224
vn 0.43984926 -0.32526199 0.83710051
vn -0.25849736 -0.19089906 0.94696181
vn -0.25504217 -0.33889574 0.90559548
vn 0.33758566 -0.13530839 0.93151895
vn -0.75422881 -0.27044055 0.59833170
vn -0.45831463 -0.29837924 0.83720817
vn -0.38891743 -0.30742122 0.86846729
vn 0.11321182 -0.20379810 0.97244507
vn 0.59842442 -0.27176876 0.75367762
vn 0.58417967 -0.17687948 0.79211601
vn -0.92488429 -0.14968725 -0.34954654
vn -8.2535140e-2 0.10889604 -0.99062082
vn 0.59205064 9.0879271e-2 -0.80076027
vn 0.89960945 0.12248283 -0.41916679
vn -0.54936370 -2.2715198e-2 -0.83527453
vn -0.10200757 0.23151508 -0.96746846
vn 0.40478529 0.15573990 -0.90105158
vn 0.76303865 0.13435920 -0.63223384
vn 0.98399513 0.14027231 -0.10989664
vn 0.96828562 8.4121011e-2 0.23525859
vn -0.83556429 -0.12875823 -0.53409140
vn -0.67290865 -0.12432553 -0.72920307
vn -0.98796524 -0.15381645 -1.6284188e-2
vn -0.94491204 -0.19802608 0.26062792
vn 0.90441110 5.5783972e-2 0.42299965
vn 0.78677267 -7.5094809e-2 0.61265776
vn -0.85817468 -0.19997641 0.47280615
g TORSO_Mat.003
usemtl Mat.003
s 1
f 1/10/1 5/7/5 2/11/2
f 1/10/1 9/8/9 5/7/5
f 1/10/1 10/9/10 9/8/9
f 1/10/1 11/13/11 10/9/10
f 2/11/2 3/12/3 1/10/1
f 2/11/2 5/7/5 4/6/4
f 2/11/2 6/14/6 3/12/3
f 3/12/3 11/13/11 1/10/1
f 3/12/3 12/15/12 11/13/11
f 4/6/4 8/5/8 7/4/7
f 5/7/5 8/5/8 4/6/4
f 5/7/5 9/8/9 8/5/8
f 6/14/6 12/15/12 3/12/3
f 6/14/6 28/16/28 12/15/12
f 7/4/7 29/3/29 26/2/26
f 8/5/8 29/3/29 7/4/7
f 12/15/12 28/16/28 27/17/27
f 13/32/13 25/31/25 23/30/23
f 13/32/13 26/33/26 25/31/25
f 14/26/14 19/25/19 15/24/15
f 14/26/14 24/29/24 17/28/17
f 15/24/15 20/23/20 16/22/16
f 17/28/17 18/27/18 14/26/14
f 17/28/17 24/29/24 23/30/23
f 18/27/18 19/25/19 14/26/14
f 19/25/19 20/23/20 15/24/15
f 20/23/20 21/21/21 16/22/16
f 21/21/21 22/20/22 16/22/16
f 21/19/21 27/17/27 22/18/22
f 23/30/23 24/29/24 13/32/13
f 26/2/26 29/3/29 25/1/25
f 27/17/27 28/16/28 22/18/22
