# Exported from Wings 3D 2.3
mtllib mano_der.mtl
o MANOS
#85 vertices, 150 faces
v -0.15750000 0.87000000 -0.10090000
v -0.16650000 0.87290000 -8.9100000e-2
v -0.15520000 0.86720000 -8.5900000e-2
v -0.16900000 0.86160000 -8.1400000e-2
v -0.20770000 0.84620000 -7.8000000e-2
v -0.21270000 0.84880000 -0.10220000
v -0.17440000 0.86480000 -0.10350000
v -0.19820000 0.82990000 -9.7900000e-2
v -0.21170000 0.83410000 -0.10690000
v -0.23160000 0.82700000 -9.3100000e-2
v -0.20340000 0.83210000 -8.3000000e-2
v -0.22700000 0.82640000 -6.6600000e-2
v -0.22470000 0.83100000 -8.0700000e-2
v -0.26530000 0.84710000 -7.0700000e-2
v -0.20110000 0.83750000 -5.6500000e-2
v -0.19640000 0.82680000 -7.2300000e-2
v -0.16670000 0.84810000 -6.4200000e-2
v -0.16650000 0.84390000 -7.4400000e-2
v -0.24690000 0.91750000 -3.7200000e-2
v -0.25160000 0.85460000 -4.1800000e-2
v -0.20280000 0.83780000 -0.12150000
v -0.19000000 0.86550000 -0.12810000
v -0.17900000 0.87910000 -0.12350000
v -0.23270000 0.84140000 -0.12860000
v -0.21140000 0.84200000 -0.13120000
v -0.23340000 0.83370000 -0.11730000
v -0.19080000 0.86590000 -0.13980000
v -0.27420000 0.92820000 -9.2500000e-2
v -0.26230000 0.93090000 -0.10500000
v -0.26100000 0.87390000 -0.13330000
v -0.20320000 0.86570000 -0.14280000
v -0.21090000 0.84830000 -0.14130000
v -0.22720000 0.86150000 -0.14240000
v -0.23440000 0.84520000 -0.13980000
v -0.26800000 0.86400000 -0.11730000
v -0.26950000 0.85280000 -9.5900000e-2
v -0.27120000 0.92140000 -6.1300000e-2
v -0.26400000 0.94780000 -5.9100000e-2
v -0.26960000 0.94490000 -8.9900000e-2
v -0.24590000 0.94010000 -0.10430000
v -0.23610000 0.92910000 -0.11430000
v -0.24340000 0.87720000 -0.14000000
v -0.23050000 0.83220000 -0.10510000
v -0.24100000 0.94810000 -3.9900000e-2
v -0.21370000 0.84940000 -4.3100000e-2
v -0.20580000 0.85520000 -2.9900000e-2
v -0.22170000 0.88080000 -3.2500000e-2
v -0.20580000 0.89870000 -2.0600000e-2
v -0.22110000 0.92510000 -2.4500000e-2
v -0.24200000 0.87240000 -3.1600000e-2
v -0.19010000 0.82780000 -3.4200000e-2
v -0.17980000 0.83550000 -4.1800000e-2
v -0.18690000 0.86060000 -3.8800000e-2
v -0.21470000 0.95020000 -5.3000000e-2
v -0.19330000 0.90620000 -3.3200000e-2
v -0.19620000 0.83210000 -4.3700000e-2
v -0.22310000 0.83750000 -5.0000000e-2
v -0.24030000 0.94690000 -4.0500000e-2
v -0.21570000 0.94870000 -5.3300000e-2
v -0.21620000 0.95100000 -5.4400000e-2
v -0.22850000 0.94810000 -7.6900000e-2
v -0.26280000 0.94620000 -6.1200000e-2
v -0.24130000 0.94910000 -4.1000000e-2
v -0.26870000 0.94360000 -8.9600000e-2
v -0.26320000 0.94900000 -5.9400000e-2
v -0.22880000 0.94520000 -7.7100000e-2
v -0.24620000 0.93880000 -0.10250000
v -0.24660000 0.94180000 -0.10290000
v -0.26850000 0.94620000 -8.9500000e-2
v -0.18590000 0.83960000 -4.9800000e-2
v -0.19830000 0.85820000 -5.5900000e-2
v -0.20640000 0.88890000 -5.7200000e-2
v -0.22760000 0.94740000 -7.6900000e-2
v -0.20880000 0.91300000 -7.5100000e-2
v -0.23290000 0.85740000 -9.8000000e-2
v -0.22920000 0.85090000 -7.3600000e-2
v -0.18840000 0.87950000 -0.10940000
v -0.21940000 0.85630000 -0.12310000
v -0.19420000 0.87070000 -0.12280000
v -0.19920000 0.87320000 -0.13680000
v -0.20460000 0.84200000 -5.9600000e-2
v -0.22470000 0.84580000 -5.3300000e-2
v -0.24170000 0.88060000 -6.7200000e-2
v -0.23800000 0.86680000 -0.11770000
v -0.17370000 0.85610000 -6.3700000e-2
vt 3.3000000e-3 0.66980000
vt 3.4000000e-3 0.69070000
vt 9.8000000e-3 0.67880000
vt 1.5800000e-2 0.62700000
vt 1.9300000e-2 0.71330000
vt 2.1900000e-2 0.60560000
vt 2.2400000e-2 0.73680000
vt 2.4000000e-2 0.69200000
vt 2.5800000e-2 0.66600000
vt 2.6700000e-2 0.62480000
vt 3.0400000e-2 0.60560000
vt 3.5300000e-2 0.63740000
vt 3.6100000e-2 0.61180000
vt 3.6200000e-2 0.72220000
vt 3.6900000e-2 0.59400000
vt 4.1600000e-2 0.60040000
vt 5.2900000e-2 0.59610000
vt 5.2900000e-2 0.66440000
vt 5.5600000e-2 0.67790000
vt 5.8200000e-2 0.70350000
vt 5.9500000e-2 0.64960000
vt 6.5200000e-2 0.71580000
vt 6.8000000e-2 0.72970000
vt 6.8300000e-2 0.66500000
vt 6.8500000e-2 0.62780000
vt 7.7800000e-2 0.60550000
vt 8.0700000e-2 0.66420000
vt 8.5200000e-2 0.69520000
vt 8.8800000e-2 0.68060000
vt 8.9300000e-2 0.64090000
vt 9.0000000e-2 0.72250000
vt 9.0700000e-2 0.70820000
vt 9.9000000e-2 0.61460000
vt 0.10710000 0.73800000
vt 0.10790000 0.76440000
vt 0.11260000 0.71840000
vt 0.12590000 0.77400000
vt 0.12630000 0.75060000
vt 0.12800000 0.72530000
vt 0.12870000 0.71540000
vt 0.13460000 0.73320000
vt 0.14280000 0.76370000
vt 0.14370000 0.67270000
vt 0.15640000 0.74490000
vt 0.17600000 0.62010000
vt 0.18200000 0.71910000
vt 0.18280000 0.66300000
vt 0.21340000 0.62490000
vt 0.21720000 0.65340000
vt 0.21730000 0.68350000
vt 0.42140000 0.63060000
vt 0.42290000 0.64540000
vt 0.42440000 0.69250000
vt 0.42460000 0.66230000
vt 0.42640000 0.67960000
vt 0.44910000 0.63120000
vt 0.44920000 0.69830000
vt 0.44990000 0.70550000
vt 0.45080000 0.64460000
vt 0.45080000 0.66650000
vt 0.45080000 0.68660000
vt 0.45410000 0.72160000
vt 0.46050000 0.61480000
vt 0.47480000 0.74010000
vt 0.48780000 0.71240000
vt 0.49430000 0.73740000
vt 0.49490000 0.76890000
vt 0.49840000 0.72850000
vt 0.50060000 0.62540000
vt 0.50090000 0.70620000
vt 0.50240000 0.64070000
vt 0.50560000 0.61120000
vt 0.51590000 0.74370000
vt 0.51920000 0.76870000
vt 0.52020000 0.66340000
vt 0.52060000 0.69940000
vt 0.52360000 0.68610000
vt 0.53160000 0.85130000
vt 0.53310000 0.82070000
vt 0.53390000 0.79630000
vt 0.53430000 0.87400000
vt 0.53460000 0.80550000
vt 0.53530000 0.93250000
vt 0.53680000 0.60270000
vt 0.53700000 0.89710000
vt 0.54230000 0.61550000
vt 0.54310000 0.66250000
vt 0.54370000 0.68510000
vt 0.54540000 0.71140000
vt 0.54670000 0.62560000
vt 0.54820000 0.70030000
vt 0.55100000 0.64280000
vt 0.55260000 0.66210000
vt 0.55410000 0.67440000
vt 0.55620000 0.59540000
vt 0.56080000 0.61220000
vt 0.56510000 0.63540000
vt 0.56620000 0.62000000
vt 0.56970000 0.66120000
vt 0.57340000 0.94300000
vt 0.57410000 0.68280000
vt 0.57420000 0.68700000
vt 0.57430000 0.71300000
vt 0.57580000 0.92600000
vt 0.57650000 0.90220000
vt 0.57780000 0.87850000
vt 0.57800000 0.69830000
vt 0.57850000 0.79800000
vt 0.57860000 0.67420000
vt 0.57890000 0.59550000
vt 0.58100000 0.84730000
vt 0.58570000 0.81640000
vt 0.58930000 0.64440000
vt 0.59120000 0.60560000
vt 0.59800000 0.68310000
vt 0.59840000 0.66020000
vt 0.60060000 0.61320000
vt 0.60430000 0.68680000
vt 0.60700000 0.62360000
vt 0.60790000 0.71320000
vt 0.61280000 0.69790000
vt 0.61510000 0.65920000
vt 0.61670000 0.68220000
vt 0.79470000 0.16660000
vt 0.79630000 0.14910000
vt 0.80190000 0.23280000
vt 0.81180000 0.15310000
vt 0.81350000 0.23350000
vt 0.81670000 0.22510000
vn 0.56369695 0.39614609 -0.72478550
vn -0.15985757 0.95333029 0.25613847
vn 0.79186199 2.4081804e-2 0.61022508
vn 0.74250501 0.29338911 0.60217036
vn -3.4083946e-2 0.95938914 0.28001923
vn -5.0911325e-2 0.94809812 0.31387575
vn 0.76129918 0.33602917 -0.55453400
vn 0.45557469 -0.85516292 -0.24728138
vn 0.23769640 -0.91363612 -0.32980217
vn -0.16433665 -0.98392230 -6.9931275e-2
vn 0.24119432 -0.93936606 -0.24375542
vn -0.15686377 -0.97239058 0.17277246
vn -0.15459762 -0.98793436 9.2350308e-3
vn -0.73997615 -0.60865720 0.28630703
vn 0.24587296 -0.12651183 0.96101053
vn 0.30143092 -0.94558568 0.12250359
vn 0.75628158 -0.19405622 0.62480425
vn 0.71966643 -0.57021553 -0.39614956
vn -0.67448925 6.5015245e-2 0.73541639
vn -0.56257497 -0.45778790 0.68843274
vn 0.53621317 -0.74742944 -0.39220488
vn 0.81640516 0.11277588 -0.56636049
vn 0.53572862 0.47438275 -0.69853837
vn -0.31885446 -0.85418906 -0.41072240
vn 0.31481576 -0.82490609 -0.46949012
vn -0.22234792 -0.91305916 -0.34188357
vn 0.73305718 -6.6429443e-2 -0.67691528
vn -0.96601417 0.15553332 -0.20646066
vn -0.46044774 0.44433760 -0.76847380
vn -0.60747451 9.6906477e-3 -0.79428006
vn 8.0283063e-2 0.25821594 -0.96274564
vn 0.20159650 -0.43905057 -0.87555322
vn -0.10634175 0.37546749 -0.92071472
vn -0.29340239 -0.64353505 -0.70694956
vn -0.78816590 -0.47842335 -0.38717646
vn -0.82611564 -0.55012737 -0.12203614
vn -0.92523720 1.5250508e-2 0.37908251
vn -0.85757620 0.21354525 0.46793320
vn -0.76882500 0.44382290 -0.46035785
vn -6.1682041e-2 0.68802208 -0.72306358
vn 0.65553000 0.31231314 -0.68756157
vn 0.32964714 0.59707722 -0.73132179
vn -0.21892790 -0.94513056 -0.24248462
vn -0.31262555 0.39483249 0.86392857
vn -0.85792578 -0.48042658 -0.18208146
vn -0.22899567 -0.27526313 0.93369759
vn -0.51705384 -0.48348749 0.70632512
vn 0.18311242 -2.4375302e-2 0.98278975
vn 1.1501824e-2 0.26546563 0.96405171
vn 0.31505389 -0.40089251 0.86024778
vn -5.6224389e-2 -0.68929494 0.72229586
vn 0.78427088 -0.53175785 -0.31961347
vn 0.92374447 0.15834943 0.34874290
vn 0.78113491 0.60290526 0.16227597
vn 0.96093923 0.27158692 5.3257285e-2
vn -0.20826505 -0.74827607 -0.62984807
vn 0.27061288 -0.38120388 0.88399789
vn 5.1643151e-2 0.28559105 0.95695911
vn 0.98292938 0.17025726 -6.9730120e-2
vn 0.76597104 0.36827894 0.52693358
vn 0.86173787 -4.7086436e-2 -0.50516405
vn -0.75831744 -0.32228869 0.56664332
vn -0.33972541 -0.11173926 0.93386347
vn -0.90985752 -9.6932227e-2 -0.40343950
vn -0.89011366 -0.25564534 0.37728389
vn 0.84306099 -2.3808959e-2 -0.53729071
vn 0.20926171 -0.10177167 -0.97254926
vn 0.21330620 -4.1959617e-2 -0.97608394
vn -0.90437142 8.5646395e-2 -0.41806343
vn 0.53235003 -0.19596835 -0.82352890
vn 0.26758040 -7.4644207e-2 -0.96063988
vn 0.29519629 -0.58943346 -0.75194903
vn 0.68959204 0.55750245 -0.46222704
vn 0.82652294 -4.1861220e-2 -0.56134433
vn 0.63355575 0.76742436 9.8320721e-2
vn 0.65133247 0.75517836 7.3970678e-2
vn -0.30082906 0.90497473 0.30086975
vn -5.0023181e-2 0.97885988 0.19832048
vn -0.25537972 0.91460544 -0.31349335
vn 0.11739463 0.96773455 -0.22295369
vn 2.2679946e-2 0.84320784 0.53710908
vn 0.61988533 0.69245289 0.36912217
vn 0.96168952 -7.9076978e-2 -0.26248828
vn 0.83189283 0.54726351 9.1961827e-2
vn 1.5547850e-2 0.74825526 0.66322872
g MANOS_Mat.2
usemtl Mat.2
s 1
f 1/1/1 7/9/7 2/3/2
f 1/122/1 8/109/8 7/116/7
f 2/3/2 3/2/3 1/1/1
f 2/3/2 4/8/4 3/2/3
f 2/3/2 5/19/5 4/8/4
f 2/3/2 6/18/6 5/19/5
f 2/3/2 7/9/7 6/18/6
f 3/123/3 8/109/8 1/122/1
f 4/115/4 8/109/8 3/123/3
f 4/115/4 11/101/11 8/109/8
f 4/118/4 18/121/18 11/102/11
f 4/5/4 85/14/85 17/7/17
f 5/28/5 82/32/82 81/22/81
f 5/20/5 85/14/85 4/5/4
f 6/24/6 75/27/75 5/19/5
f 6/21/6 84/30/84 75/27/75
f 7/12/7 77/10/77 6/21/6
f 8/109/8 9/99/9 7/116/7
f 8/109/8 10/94/10 9/99/9
f 8/109/8 11/101/11 10/94/10
f 9/113/9 21/97/21 7/119/7
f 9/113/9 26/92/26 21/97/21
f 9/93/9 43/87/43 26/92/26
f 10/94/10 43/87/43 9/93/9
f 11/101/11 13/88/13 10/94/10
f 11/102/11 16/107/16 12/91/12
f 11/102/11 18/121/18 16/107/16
f 12/91/12 13/88/13 11/102/11
f 12/91/12 14/77/14 13/88/13
f 12/91/12 16/107/16 15/103/15
f 12/91/12 20/76/20 14/77/14
f 12/91/12 57/89/57 20/76/20
f 13/88/13 14/77/14 10/94/10
f 14/77/14 20/76/20 19/61/19
f 14/77/14 36/75/36 10/94/10
f 14/77/14 37/60/37 36/75/36
f 15/103/15 57/89/57 12/91/12
f 15/23/15 82/32/82 57/31/57
f 15/23/15 85/14/85 81/22/81
f 16/107/16 17/120/17 15/103/15
f 16/107/16 18/121/18 17/120/17
f 17/126/17 18/128/18 4/129/4
f 17/7/17 85/14/85 15/23/15
f 19/61/19 37/60/37 14/77/14
f 19/61/19 38/54/38 37/60/37
f 19/61/19 44/55/44 38/54/38
f 19/61/19 49/57/49 44/55/44
f 19/61/19 50/70/50 49/57/49
f 20/76/20 50/70/50 19/61/19
f 20/76/20 57/89/57 50/70/50
f 21/97/21 23/117/23 7/119/7
f 21/97/21 25/98/25 22/114/22
f 21/97/21 26/92/26 25/98/25
f 22/114/22 23/117/23 21/97/21
f 22/11/22 79/13/79 23/6/23
f 22/11/22 80/16/80 79/13/79
f 23/6/23 77/10/77 7/4/7
f 23/6/23 79/13/79 77/10/77
f 24/90/24 34/86/34 25/98/25
f 24/90/24 35/71/35 34/86/34
f 25/98/25 26/92/26 24/90/24
f 25/98/25 27/110/27 22/114/22
f 25/98/25 32/96/32 27/110/27
f 25/98/25 34/86/34 32/96/32
f 26/92/26 35/71/35 24/90/24
f 26/92/26 36/75/36 35/71/35
f 26/92/26 43/87/43 36/75/36
f 27/110/27 32/96/32 31/95/31
f 27/15/27 80/16/80 22/11/22
f 28/59/28 39/52/39 29/56/29
f 29/56/29 30/69/30 28/59/28
f 29/56/29 42/72/42 30/69/30
f 30/69/30 35/71/35 28/59/28
f 30/69/30 42/72/42 33/84/33
f 31/17/31 80/16/80 27/15/27
f 32/96/32 33/84/33 31/95/31
f 32/96/32 34/86/34 33/84/33
f 33/84/33 34/86/34 30/69/30
f 33/26/33 80/16/80 31/17/31
f 34/86/34 35/71/35 30/69/30
f 35/71/35 36/75/36 28/59/28
f 36/75/36 37/60/37 28/59/28
f 36/75/36 43/87/43 10/94/10
f 37/60/37 38/54/38 28/59/28
f 38/54/38 39/52/39 28/59/28
f 39/52/39 40/51/40 29/56/29
f 40/51/40 41/63/41 29/56/29
f 40/48/40 73/49/73 41/45/41
f 41/63/41 42/72/42 29/56/29
f 41/45/41 84/30/84 42/33/42
f 42/33/42 78/25/78 33/26/33
f 42/33/42 84/30/84 78/25/78
f 45/68/45 51/74/51 46/66/46
f 45/68/45 56/73/56 51/74/51
f 45/34/45 71/41/71 56/35/56
f 45/34/45 72/40/72 71/41/71
f 46/66/46 47/65/47 45/68/45
f 46/66/46 48/58/48 47/65/47
f 46/66/46 53/64/53 48/58/48
f 47/39/47 72/40/72 45/34/45
f 48/58/48 49/57/49 47/65/47
f 48/58/48 55/62/55 49/57/49
f 49/57/49 50/70/50 47/65/47
f 49/57/49 54/53/54 44/55/44
f 49/57/49 55/62/55 54/53/54
f 50/124/50 72/127/72 47/125/47
f 50/36/50 83/43/83 72/40/72
f 51/74/51 53/64/53 46/66/46
f 51/37/51 56/35/56 52/42/52
f 52/67/52 53/64/53 51/74/51
f 52/42/52 70/38/70 53/44/53
f 53/64/53 55/62/55 48/58/48
f 53/44/53 71/41/71 55/46/55
f 54/50/54 74/47/74 73/49/73
f 55/46/55 74/47/74 54/50/54
f 56/35/56 70/38/70 52/42/52
f 56/35/56 71/41/71 70/38/70
f 57/31/57 82/32/82 50/36/50
f 58/85/58 63/105/63 62/81/62
f 59/83/59 60/104/60 58/85/58
f 59/83/59 61/100/61 60/104/60
f 59/80/59 66/82/66 61/108/61
f 60/104/60 63/105/63 58/85/58
f 62/81/62 65/106/65 64/78/64
f 63/105/63 65/106/65 62/81/62
f 64/78/64 68/112/68 67/79/67
f 64/78/64 69/111/69 68/112/68
f 65/106/65 69/111/69 64/78/64
f 66/82/66 68/112/68 61/108/61
f 67/79/67 68/112/68 66/82/66
f 70/38/70 71/41/71 53/44/53
f 71/41/71 72/40/72 55/46/55
f 72/40/72 74/47/74 55/46/55
f 72/40/72 83/43/83 74/47/74
f 73/49/73 74/47/74 41/45/41
f 74/47/74 83/43/83 41/45/41
f 75/27/75 76/29/76 5/28/5
f 75/27/75 83/43/83 76/29/76
f 75/27/75 84/30/84 83/43/83
f 76/29/76 82/32/82 5/28/5
f 76/29/76 83/43/83 82/32/82
f 77/10/77 78/25/78 6/21/6
f 77/10/77 79/13/79 78/25/78
f 78/25/78 80/16/80 33/26/33
f 78/25/78 84/30/84 6/21/6
f 79/13/79 80/16/80 78/25/78
f 81/22/81 82/32/82 15/23/15
f 81/22/81 85/14/85 5/20/5
f 82/32/82 83/43/83 50/36/50
f 83/43/83 84/30/84 41/45/41
