# Exported from Wings 3D 2.3
mtllib pie_izq.mtl
o PIES
#60 vertices, 101 faces
v 0.17230000 0.10350000 -6.3401000e-2
v 0.14850000 9.2200000e-2 -8.2300000e-2
v 0.18190000 7.7300000e-2 -1.2100000e-2
v 0.14520000 4.7500000e-2 -2.7200000e-2
v 0.21610000 5.0900000e-2 5.6499000e-2
v 0.20910000 1.3800000e-2 6.4799000e-2
v 0.14330000 1.5100000e-2 -2.7200000e-2
v 0.13060000 1.6700000e-2 -0.11150100
v 0.12540000 7.0500000e-2 -0.11090000
v 0.13030000 0.11490000 -0.12390000
v 0.15720000 0.14210000 -9.8701000e-2
v 0.21300000 0.10010000 -6.1100000e-2
v 0.23390000 8.4000000e-2 -1.7000000e-2
v 0.17010000 1.6400000e-2 -0.21580100
v 0.12510000 1.9100000e-2 -0.21910000
v 0.12520000 6.5300000e-2 -0.21760100
v 9.9700000e-2 2.1500000e-2 -0.19530100
v 0.22040000 1.4700000e-2 -0.16300100
v 0.17020000 6.7100000e-2 -0.21410000
v 0.22110000 5.1200000e-2 -0.16260100
v 0.26760000 4.4500000e-2 -8.1200000e-2
v 0.26800000 1.2100000e-2 -8.8201000e-2
v 0.30000000 1.1500000e-2 1.2799000e-2
v 9.5600000e-2 1.8000000e-2 -0.16910100
v 0.11410000 0.13110000 -0.17100000
v 0.11880000 0.14090000 -0.18630100
v 0.10230000 6.6000000e-2 -0.19530100
v 0.11600000 0.11700000 -0.15250000
v 9.8500000e-2 6.8600000e-2 -0.16810100
v 0.18550000 0.15110000 -0.16360000
v 0.18620000 0.10530000 -0.17720100
v 0.16020000 0.15110000 -0.18320000
v 0.13490000 0.20400000 -0.17250000
v 0.16330000 0.20360000 -0.16900000
v 0.19520000 0.19540000 -0.13550000
v 0.18520000 0.18810000 -0.10980100
v 0.18500000 0.14670000 -0.14620000
v 0.19120000 0.10620000 -0.15150000
v 0.12880000 0.15090000 -0.13920000
v 0.12900000 0.19600000 -0.11540100
v 0.12570000 0.15020000 -0.17190100
v 0.13510000 0.13190000 -0.19050000
v 0.16050000 0.11530000 -0.18950100
v 0.16910000 0.18450000 -9.0900000e-2
v 0.14050000 0.14680000 -0.12690000
v 0.12630000 0.11200000 -0.14630100
v 0.12830000 0.11540000 -0.17450000
v 0.18220000 0.12010000 -0.11750100
v 0.16400000 0.12070000 -0.10890100
v 0.13550000 0.10840000 -0.12760000
v 0.15860000 0.13310000 -0.20270000
v 0.13970000 0.14030000 -0.20040100
v 0.18400000 0.10970000 -0.18670100
v 0.20530000 0.11160000 -0.15760000
v 0.20150000 0.13600000 -0.11980100
v 0.23240000 9.1200000e-2 -0.10360100
v 0.25870000 7.6300000e-2 -5.2100000e-2
v 0.26850000 5.1600000e-2 4.9599000e-2
v 0.27260000 1.4300000e-2 5.8899000e-2
v 0.29210000 4.9000000e-2 8.7990000e-3
vt 1.2200000e-2 0.56860000
vt 1.3400000e-2 0.21350000
vt 1.3500000e-2 0.98660000
vt 1.3700000e-2 0.21750000
vt 1.4600000e-2 0.21480000
vt 1.5100000e-2 0.63710000
vt 1.6700000e-2 0.81120000
vt 4.8100000e-2 0.55940000
vt 5.4500000e-2 0.99010000
vt 5.4700000e-2 0.83100000
vt 5.9300000e-2 0.63720000
vt 6.2500000e-2 5.4800000e-2
vt 6.3300000e-2 5.4100000e-2
vt 6.3600000e-2 5.4800000e-2
vt 8.2900000e-2 0.63780000
vt 8.6300000e-2 0.83290000
vt 8.6900000e-2 0.98970000
vt 8.8900000e-2 0.55190000
vt 8.9100000e-2 0.55130000
vt 0.10660000 0.63980000
vt 0.11480000 4.6800000e-2
vt 0.11490000 4.7900000e-2
vt 0.11530000 0.98930000
vt 0.11560000 4.8200000e-2
vt 0.13120000 0.63910000
vt 0.13880000 0.83770000
vt 0.14080000 0.23530000
vt 0.14130000 0.23570000
vt 0.15860000 0.63800000
vt 0.16080000 0.99210000
vt 0.16120000 0.83790000
vt 0.18050000 0.82900000
vt 0.18330000 0.63530000
vt 0.20340000 0.63770000
vt 0.20850000 0.99060000
vt 0.21950000 0.64250000
vt 0.21970000 0.64250000
vt 0.21980000 0.64250000
vt 0.21990000 0.64250000
vt 0.22000000 0.64250000
vt 0.22010000 0.64260000
vt 0.22030000 0.64260000
vt 0.22040000 0.64260000
vt 0.22510000 0.63610000
vt 0.22930000 0.45310000
vt 0.23030000 0.45300000
vt 0.25680000 0.83040000
vt 0.25690000 0.99160000
vt 0.25910000 0.63780000
vt 0.28150000 0.16570000
vt 0.31340000 0.88040000
vt 0.32470000 4.6500000e-2
vt 0.32570000 4.5900000e-2
vt 0.34160000 0.47200000
vt 0.34340000 0.97030000
vt 0.34480000 0.45970000
vt 0.35960000 0.24280000
vt 0.35960000 0.24340000
vt 0.39740000 0.60770000
vt 0.40520000 0.78860000
vt 0.41570000 0.97290000
vt 0.42320000 0.64780000
vt 0.42330000 0.64810000
vt 0.49100000 0.41990000
vt 0.52260000 0.47870000
vt 0.57210000 0.73390000
vt 0.57360000 0.73170000
vt 0.58750000 0.88080000
vt 0.58780000 0.88020000
vt 0.59710000 0.16640000
vt 0.60010000 1.5100000e-2
vt 0.62550000 0.18390000
vt 0.62950000 0.54550000
vt 0.67870000 0.33100000
vt 0.69460000 0.58880000
vt 0.76360000 0.81830000
vt 0.78660000 0.45210000
vt 0.79690000 0.22160000
vt 0.85570000 0.52380000
vt 0.87940000 9.2000000e-3
vt 0.90880000 0.25650000
vt 0.96620000 0.67150000
vt 0.96670000 0.56630000
vt 0.98390000 5.3200000e-2
vn -0.34712408 0.69705042 0.62739587
vn -0.75668237 0.43482795 0.48821762
vn -0.37156146 0.80084061 0.46967691
vn -0.85656526 0.28394264 0.43089736
vn -0.23820129 0.60373384 0.76076645
vn -0.40866608 -0.67557610 0.61366845
vn -0.67498610 -0.68974524 0.26200242
vn -0.66687554 -0.71232403 0.21879552
vn -0.90514270 0.15778888 0.39473962
vn -0.58268790 0.79196418 0.18239394
vn -0.35781037 0.88825959 0.28803932
vn 0.30365077 0.88035205 0.36438507
vn 0.21237398 0.93485456 0.28450702
vn 0.18825503 -0.71354456 -0.67484383
vn -0.31717338 -0.66116526 -0.67989819
vn -0.32476464 0.14381658 -0.93479662
vn -0.80183537 -0.25523211 -0.54029307
vn 0.70813821 -0.42928112 -0.56058719
vn 0.52779764 0.11698727 -0.84127500
vn 0.81500778 0.18569611 -0.54888913
vn 0.89209347 0.25246694 -0.37473948
vn 0.39640684 -0.89561313 -0.20183840
vn 0.87387744 -0.48613640 -3.1027312e-3
vn -0.74856441 -0.66306201 2.9406824e-4
vn -0.45775677 0.77530245 0.43516071
vn -0.69761178 0.57721512 -0.42445319
vn -0.92369945 0.14950624 -0.35274242
vn -0.43134226 0.73622095 0.52146195
vn -0.96502854 0.11756477 0.23430417
vn 0.95752527 4.8972325e-2 -0.28416028
vn 0.84931835 0.16033370 -0.50294278
vn 0.40869518 0.22922762 -0.88341550
vn -0.51087705 0.25582947 -0.82070453
vn 0.45577009 0.20722283 -0.86563984
vn 0.88461301 5.0425993e-2 -0.46359146
vn 0.91445875 -0.29449668 0.27755523
vn 0.99020993 -1.2585415e-2 0.13901762
vn 0.98859454 0.15044662 6.8298136e-3
vn -0.91652791 -0.10246346 0.38662362
vn -0.91205363 -0.13964424 0.38556149
vn -0.98607293 3.4370061e-2 -0.16272332
vn -0.44849362 0.15504056 -0.88023628
vn 0.31783465 0.16693554 -0.93333470
vn 0.24913286 -0.32138464 0.91358893
vn -0.71556619 -0.11572998 0.68889157
vn -0.95324650 2.5046367e-3 0.30218344
vn -0.96559272 -5.3129395e-2 -0.25457411
vn 0.87767897 -1.5710754e-2 0.47899145
vn -0.33394642 -0.14081154 0.93201497
vn -0.74718756 8.5274842e-2 0.65911983
vn 0.49510212 0.82004753 -0.28704693
vn 9.7576129e-2 0.94599178 -0.30915764
vn 0.57908204 0.74994879 -0.31975114
vn 0.44461503 0.74770435 -0.49320957
vn 0.54229566 0.83947168 -3.4680250e-2
vn 0.81082543 0.55515614 -0.18537472
vn 0.64269730 0.76416496 -5.4700067e-2
vn 0.43132251 0.66593900 0.60867572
vn 0.54278536 -2.8480556e-2 0.83938841
vn 0.83113645 0.53610392 0.14766441
g PIES_Mat
usemtl Mat
s 1
f 1/65/1 11/62/11 2/64/2
f 1/65/1 12/73/12 11/62/11
f 2/64/2 3/74/3 1/65/1
f 2/64/2 4/72/4 3/74/3
f 2/64/2 9/57/9 4/72/4
f 2/64/2 10/56/10 9/57/9
f 2/64/2 11/62/11 10/56/10
f 3/74/3 12/73/12 1/65/1
f 3/74/3 13/77/13 12/73/12
f 4/72/4 5/78/5 3/74/3
f 4/72/4 6/80/6 5/78/5
f 4/72/4 7/71/7 6/80/6
f 4/72/4 8/53/8 7/71/7
f 4/72/4 9/57/9 8/53/8
f 5/78/5 13/77/13 3/74/3
f 5/78/5 58/81/58 13/77/13
f 5/78/5 59/84/59 58/81/58
f 6/80/6 59/84/59 5/78/5
f 7/75/7 22/76/22 6/79/6
f 8/67/8 22/76/22 7/75/7
f 8/66/8 24/60/24 14/61/14
f 8/53/8 29/27/29 24/22/24
f 9/58/9 29/27/29 8/53/8
f 10/56/10 28/45/28 9/58/9
f 10/41/10 53/40/53 28/40/28
f 10/41/10 54/41/54 53/40/53
f 11/42/11 54/41/54 10/41/10
f 11/42/11 55/43/55 54/41/54
f 12/73/12 55/59/55 11/63/11
f 12/73/12 56/64/56 55/59/55
f 12/73/12 57/74/57 56/64/56
f 13/77/13 57/74/57 12/73/12
f 13/77/13 60/78/60 57/74/57
f 14/61/14 18/68/18 8/66/8
f 14/24/14 19/28/19 18/52/18
f 14/61/14 24/60/24 15/55/15
f 15/21/15 16/4/16 14/24/14
f 15/21/15 17/12/17 16/4/16
f 15/55/15 24/60/24 17/51/17
f 16/4/16 19/28/19 14/24/14
f 16/4/16 27/2/27 26/1/26
f 16/4/16 51/19/51 19/28/19
f 16/4/16 52/8/52 51/19/51
f 17/14/17 27/2/27 16/4/16
f 18/69/18 22/76/22 8/67/8
f 19/28/19 20/50/20 18/53/18
f 19/28/19 53/46/53 20/50/20
f 20/50/20 21/70/21 18/53/18
f 20/50/20 56/64/56 21/70/21
f 21/70/21 22/71/22 18/53/18
f 21/70/21 23/80/23 22/71/22
f 21/70/21 60/78/60 23/80/23
f 22/76/22 23/82/23 6/79/6
f 23/82/23 59/83/59 6/79/6
f 23/80/23 60/78/60 59/84/59
f 24/22/24 27/5/27 17/13/17
f 24/22/24 29/27/29 27/5/27
f 25/18/25 29/27/29 28/45/28
f 25/39/25 52/37/52 26/36/26
f 26/1/26 27/5/27 25/18/25
f 26/1/26 52/8/52 16/4/16
f 27/5/27 29/27/29 25/18/25
f 28/45/28 29/27/29 9/58/9
f 28/40/28 51/38/51 25/39/25
f 28/40/28 53/40/53 51/38/51
f 30/10/30 37/7/37 31/11/31
f 31/11/31 32/16/32 30/10/30
f 31/11/31 43/15/43 32/16/32
f 32/16/32 35/9/35 30/10/30
f 32/16/32 42/20/42 33/23/33
f 32/16/32 43/15/43 42/20/42
f 33/23/33 34/17/34 32/16/32
f 33/23/33 41/26/41 40/30/40
f 33/23/33 42/20/42 41/26/41
f 34/17/34 35/9/35 32/16/32
f 35/9/35 36/3/36 30/10/30
f 36/3/36 37/7/37 30/10/30
f 36/48/36 44/35/44 37/47/37
f 37/7/37 38/6/38 31/11/31
f 37/47/37 48/44/48 38/49/38
f 39/31/39 45/32/45 40/30/40
f 39/31/39 46/29/46 45/32/45
f 40/30/40 41/26/41 39/31/39
f 40/30/40 45/32/45 44/35/44
f 41/26/41 46/29/46 39/31/39
f 41/26/41 47/25/47 46/29/46
f 42/20/42 47/25/47 41/26/41
f 44/35/44 48/44/48 37/47/37
f 44/35/44 49/34/49 48/44/48
f 45/32/45 49/34/49 44/35/44
f 45/32/45 50/33/50 49/34/49
f 46/29/46 50/33/50 45/32/45
f 51/38/51 52/37/52 25/39/25
f 51/19/51 53/46/53 19/28/19
f 53/46/53 54/54/54 20/50/20
f 54/54/54 56/64/56 20/50/20
f 55/59/55 56/64/56 54/54/54
f 56/64/56 57/74/57 21/70/21
f 57/74/57 60/78/60 21/70/21
f 58/81/58 60/78/60 13/77/13
f 59/84/59 60/78/60 58/81/58
