# Exported from Wings 3D 2.3
mtllib pantorrilla_izq.mtl
o PIERNAS
#50 vertices, 78 faces
v 0.20070000 0.67570100 2.6700000e-2
v 0.21320000 0.61560000 1.6799000e-2
v 0.21220000 0.60900100 -6.4400000e-2
v 0.21350000 0.58760000 1.8199000e-2
v 0.16360000 0.58490000 5.5900000e-2
v 0.15950000 0.61810100 5.4600000e-2
v 0.15070000 0.67840000 5.7400000e-2
v 7.2200000e-2 0.58810100 -4.2000000e-3
v 7.0400000e-2 0.64220100 -1.5300000e-2
v 0.21650000 0.59100100 -6.9000000e-2
v 0.15470000 0.56400000 -0.12740000
v 1.2800000e-2 0.78190000 -7.9200000e-2
v 2.2000000e-2 0.78990000 -9.7600000e-2
v 2.3400000e-2 0.77790100 -7.0600000e-2
v 1.5700000e-2 0.78270000 -3.1200000e-2
v 2.7700000e-2 0.77610000 -2.9100000e-2
v 4.5000000e-3 0.78600000 -0.13700000
v -5.0000000e-4 0.83680000 -0.19980000
v 2.4900000e-2 0.84600100 8.1700000e-2
v 1.8400000e-2 0.80610000 2.6200000e-2
v 3.0700000e-2 0.80290000 2.5399000e-2
v 2.6600000e-2 0.95630100 9.0800000e-2
v -7.0000000e-4 0.95840000 -0.21090000
v 6.2300000e-2 0.60640000 -5.3900000e-2
v 9.6200000e-2 0.94630000 -0.19000000
v 0.14270000 0.94420000 -0.16410000
v 0.15010000 0.83110100 -0.16170000
v 0.20730000 0.84570100 -9.5900000e-2
v 0.22130000 0.73560000 -8.3800000e-2
v 0.20260000 0.84770000 -4.4200000e-2
v 0.19230000 0.84610000 1.1199000e-2
v 0.11840000 0.84530100 7.2799000e-2
v 0.16940000 0.94790000 1.0900000e-2
v 0.19180000 0.94820100 -4.0100000e-2
v 0.19510000 0.94530000 -9.1300000e-2
v 0.10570000 0.95570000 6.8399000e-2
v 3.1900000e-2 0.73570000 -3.0200000e-2
v 8.0500000e-2 0.76490100 3.6299000e-2
v 8.6800000e-2 0.55840000 -0.10510000
v 9.0800000e-2 0.62890000 -0.10500000
v 0.15650000 0.62970100 -0.11830000
v 6.0500000e-2 0.65550100 -6.9200000e-2
v 5.4400000e-2 0.82180100 -0.18250000
v 6.4100000e-2 0.74070100 -0.12610000
v 2.7300000e-2 0.76670100 -0.11040000
v 5.1400000e-2 0.94970000 -0.20640000
v 9.8000000e-2 0.82370100 -0.17870000
v 0.14070000 0.77370100 -0.15320000
v 0.14880000 0.73460000 -0.14470000
v 2.6400000e-2 0.76750000 -6.8300000e-2
vt 4.0000000e-3 0.60670000
vt 6.6000000e-3 0.63330000
vt 7.6000000e-3 0.67250000
vt 9.0000000e-3 0.58310000
vt 1.5900000e-2 0.51780000
vt 2.5400000e-2 0.46370000
vt 2.5800000e-2 0.56380000
vt 2.6000000e-2 0.59980000
vt 2.6500000e-2 0.66950000
vt 2.6700000e-2 0.63750000
vt 3.4300000e-2 0.60420000
vt 5.1700000e-2 0.71710000
vt 5.3400000e-2 0.71870000
vt 5.4900000e-2 0.60280000
vt 5.4900000e-2 0.84050000
vt 7.2900000e-2 0.56590000
vt 7.4200000e-2 0.58650000
vt 0.10460000 0.44860000
vt 0.10920000 0.53040000
vt 0.15970000 0.57590000
vt 0.16040000 0.71220000
vt 0.16760000 0.83070000
vt 0.20050000 0.48710000
vt 0.21230000 0.41530000
vt 0.26180000 0.82990000
vt 0.26250000 0.71250000
vt 0.35680000 0.63400000
vt 0.36750000 0.40740000
vt 0.36810000 0.49440000
vt 0.37210000 0.83400000
vt 0.37920000 0.58670000
vt 0.38270000 0.71480000
vt 0.49760000 0.86030000
vt 0.50090000 0.51740000
vt 0.50450000 0.74710000
vt 0.50690000 0.46580000
vt 0.51830000 0.55770000
vt 0.55490000 0.84620000
vt 0.55510000 0.72170000
vt 0.61000000 0.70040000
vt 0.61080000 0.82770000
vt 0.65200000 0.60470000
vt 0.66180000 0.54210000
vt 0.66280000 0.48780000
vt 0.78190000 0.61640000
vt 0.80250000 0.48730000
vt 0.80420000 0.51620000
vt 0.81160000 0.71060000
vt 0.82150000 0.82310000
vt 0.86540000 0.65120000
vt 0.90820000 0.65980000
vt 0.91370000 0.72410000
vt 0.95550000 0.55840000
vt 0.96420000 0.63180000
vt 0.96550000 0.59700000
vt 0.96720000 0.69640000
vt 0.96940000 0.47150000
vt 0.97810000 0.65610000
vt 0.97950000 0.66380000
vt 0.98130000 0.82590000
vt 0.98870000 0.73660000
vt 0.98960000 0.61840000
vt 0.98980000 0.73600000
vn 0.88757822 6.6881042e-2 0.45577608
vn 0.82960768 6.3476590e-2 0.55472680
vn 0.93983834 0.10241639 -0.32590609
vn 0.88150858 0.10750660 0.45976620
vn 2.8144125e-2 4.2579936e-2 0.99869658
vn -4.3310314e-3 3.7070064e-2 0.99930328
vn 0.10205995 -7.0917902e-2 0.99224716
vn -0.75582075 4.1731717e-2 0.65344736
vn -0.83876978 -0.12447760 0.53006658
vn 0.86385179 0.30819504 -0.39846694
vn 0.21827440 0.16119809 -0.96248193
vn 3.3519748e-2 -0.98285591 -0.18130276
vn -0.45429868 -0.85105713 -0.26327642
vn -0.64818984 -0.75721057 -8.0511345e-2
vn -0.46040075 -0.87745291 0.13456424
vn -0.79083895 -0.57785068 0.20164907
vn 0.72085995 -0.64389265 -0.25644335
vn 6.4007402e-2 -0.50825119 -0.85882698
vn -7.4266963e-2 -0.44419554 0.89284642
vn -0.29303884 -0.83435654 0.46688051
vn -0.56013584 -0.66376359 0.49564679
vn 0.27094966 -8.3294284e-2 0.95898298
vn 7.0677854e-2 -9.0562323e-2 -0.99337964
vn -0.98509374 -3.1866809e-2 -0.16904088
vn 0.38295473 -5.0376938e-2 -0.92239245
vn 0.69345530 5.9020216e-2 -0.71807824
vn 0.55138226 -7.0782389e-2 -0.83124452
vn 0.94877316 9.7146869e-2 -0.30065258
vn 0.91956300 -3.4676578e-2 -0.39140953
vn 0.97348015 0.12777401 0.18976356
vn 0.84013647 0.12176716 0.52852953
vn 0.31248492 -4.9216768e-2 0.94864687
vn 0.82826376 0.14313711 0.54174801
vn 0.97759139 0.10247957 0.18388313
vn 0.95193248 0.12942534 -0.27762139
vn 0.36091113 2.5655117e-2 0.93224727
vn -0.92344461 -0.28874246 0.25274065
vn -0.50965024 -0.40939192 0.75673964
vn -0.64373775 3.7608272e-2 -0.76432148
vn -0.58867168 -0.13923982 -0.79629010
vn 0.26270298 -0.10707733 -0.95891688
vn -0.95378194 -0.26596104 -0.13987403
vn -4.2657817e-2 -0.48391674 -0.87407374
vn -0.26535733 -0.38452141 -0.88415427
vn -0.80384493 -0.44977268 -0.38927864
vn 0.18993327 -0.13218601 -0.97285775
vn 0.18813596 -0.27668654 -0.94236374
vn 0.26931317 -0.25925386 -0.92750086
vn 0.23281195 -0.19084561 -0.95361237
vn -0.97003136 -0.24268240 -1.2017376e-2
g PIERNAS_Mat.001
usemtl Mat.001
s 1
f 1/42/1 7/45/7 2/43/2
f 1/42/1 31/40/31 7/45/7
f 2/43/2 3/34/3 1/42/1
f 2/43/2 4/44/4 3/34/3
f 2/43/2 6/47/6 4/44/4
f 2/43/2 7/45/7 6/47/6
f 3/34/3 29/37/29 1/42/1
f 3/34/3 41/29/41 29/37/29
f 4/44/4 6/47/6 5/46/5
f 4/44/4 10/36/10 3/34/3
f 6/47/6 8/57/8 5/46/5
f 6/47/6 9/53/9 8/57/8
f 7/45/7 9/53/9 6/47/6
f 7/45/7 38/50/38 9/53/9
f 9/5/9 24/18/24 8/6/8
f 9/53/9 38/50/38 37/55/37
f 9/5/9 42/19/42 24/18/24
f 10/36/10 11/28/11 3/34/3
f 11/28/11 41/29/41 3/34/3
f 12/8/12 17/16/17 13/3/13
f 13/3/13 14/2/14 12/8/12
f 13/9/13 50/14/50 14/10/14
f 14/2/14 15/4/15 12/8/12
f 14/2/14 16/1/16 15/4/15
f 14/10/14 50/14/50 16/11/16
f 16/59/16 20/51/20 15/54/15
f 16/59/16 21/56/21 20/51/20
f 16/62/16 37/55/37 21/58/21
f 16/11/16 50/14/50 37/7/37
f 17/16/17 18/12/18 13/3/13
f 18/13/18 45/17/45 13/9/13
f 18/13/18 46/22/46 43/21/43
f 19/63/19 36/49/36 22/60/22
f 19/61/19 38/50/38 32/48/32
f 20/51/20 21/56/21 19/52/19
f 21/58/21 38/50/38 19/61/19
f 23/15/23 46/22/46 18/13/18
f 24/18/24 40/23/40 39/24/39
f 24/18/24 42/19/42 40/23/40
f 25/25/25 47/26/47 46/22/46
f 26/30/26 27/32/27 25/25/25
f 26/30/26 28/35/28 27/32/27
f 26/30/26 35/33/35 28/35/28
f 27/32/27 47/26/47 25/25/25
f 27/32/27 48/27/48 47/26/47
f 28/35/28 29/37/29 27/32/27
f 28/35/28 30/39/30 29/37/29
f 28/35/28 34/38/34 30/39/30
f 28/35/28 35/33/35 34/38/34
f 29/37/29 31/40/31 1/42/1
f 29/37/29 48/27/48 27/32/27
f 29/37/29 49/31/49 48/27/48
f 30/39/30 31/40/31 29/37/29
f 30/39/30 33/41/33 31/40/31
f 30/39/30 34/38/34 33/41/33
f 31/40/31 32/48/32 7/45/7
f 31/40/31 33/41/33 32/48/32
f 32/48/32 36/49/36 19/61/19
f 32/48/32 38/50/38 7/45/7
f 33/41/33 36/49/36 32/48/32
f 37/55/37 38/50/38 21/58/21
f 37/7/37 42/19/42 9/5/9
f 37/7/37 50/14/50 42/19/42
f 39/24/39 40/23/40 11/28/11
f 40/23/40 41/29/41 11/28/11
f 40/23/40 44/20/44 41/29/41
f 40/23/40 45/17/45 44/20/44
f 41/29/41 49/31/49 29/37/29
f 42/19/42 45/17/45 40/23/40
f 42/19/42 50/14/50 45/17/45
f 43/21/43 45/17/45 18/13/18
f 43/21/43 47/26/47 44/20/44
f 44/20/44 45/17/45 43/21/43
f 44/20/44 49/31/49 41/29/41
f 45/17/45 50/14/50 13/9/13
f 46/22/46 47/26/47 43/21/43
f 47/26/47 48/27/48 44/20/44
f 48/27/48 49/31/49 44/20/44
