# Exported from Wings 3D 2.3
mtllib pantorrilla_der.mtl
o PIERNAS
#44 vertices, 66 faces
v -9.1500000e-2 0.84650000 -0.18880000
v -0.11280000 0.79920000 -0.17410000
v -0.12900000 0.85250000 -0.16530000
v -0.17960000 0.73080000 -9.4200000e-2
v -0.17810000 0.86550000 -9.2900000e-2
v -0.10860000 0.64820000 -0.15480000
v -0.11820000 0.75650000 -0.17660000
v -4.5300000e-2 0.76670000 -0.16820000
v -0.16480000 0.61460100 -7.8300000e-2
v -0.13940000 0.68330000 2.2799000e-2
v -0.12970000 0.61440000 7.9990000e-3
v -0.13080000 0.59320000 6.2990000e-3
v -0.16470000 0.59150000 -8.4000000e-2
v -4.7500000e-2 0.84370000 -0.20200000
v -5.3700000e-2 0.96290000 -0.21300000
v -9.2400000e-2 0.96470000 -0.19700000
v -0.12820000 0.96560000 -0.15920000
v 1.2800000e-2 0.78190000 -7.9200000e-2
v 5.6000000e-3 0.74760000 -4.6300000e-2
v 1.5700000e-2 0.78270000 -3.1200000e-2
v -6.9000000e-3 0.61350000 -0.10210000
v -5.4000000e-2 0.55010000 -0.15640000
v -0.10670000 0.55200000 -0.15830000
v 4.5000000e-3 0.78600000 -0.13700000
v -1.8100000e-2 0.65050000 -0.10880000
v -4.3600000e-2 0.64710000 -0.13970000
v -5.0000000e-4 0.83680000 -0.19980000
v -1.6900000e-2 0.65010000 -4.3700000e-2
v -8.6000000e-3 0.60580000 -4.7600000e-2
v -7.9100000e-2 0.61790000 4.7399000e-2
v -8.0400000e-2 0.59250000 4.6900000e-2
v -7.9800000e-2 0.68000000 4.7299000e-2
v 2.4900000e-2 0.84600100 8.1700000e-2
v -5.1500000e-2 0.95940000 6.8399000e-2
v -4.9200000e-2 0.84890000 6.5999000e-2
v -0.12200000 0.95570000 3.3799000e-2
v 1.8400000e-2 0.80610000 2.6200000e-2
v -1.8900000e-2 0.77440000 1.8899000e-2
v -0.15820000 0.96070000 -1.6100000e-2
v -0.16760000 0.86260000 -1.5000000e-2
v -0.13450000 0.85580000 3.3199000e-2
v 2.6600000e-2 0.95630100 9.0800000e-2
v -0.17520000 0.96510000 -8.2100000e-2
v -7.0000000e-4 0.95840000 -0.21090000
vt 9.0000000e-3 0.58310000
vt 1.7300000e-2 0.54510000
vt 1.7600000e-2 0.51530000
vt 2.5400000e-2 0.46370000
vt 2.6000000e-2 0.59980000
vt 5.1600000e-2 0.84460000
vt 5.1700000e-2 0.71710000
vt 7.2900000e-2 0.56590000
vt 7.5400000e-2 0.53100000
vt 0.10730000 0.43790000
vt 0.17240000 0.71380000
vt 0.17660000 0.56330000
vt 0.18200000 0.83140000
vt 0.19390000 0.48460000
vt 0.21310000 0.41710000
vt 0.27450000 0.83130000
vt 0.27530000 0.71230000
vt 0.34490000 0.62190000
vt 0.36480000 0.46640000
vt 0.36910000 0.40860000
vt 0.37750000 0.58550000
vt 0.38310000 0.83600000
vt 0.38790000 0.71220000
vt 0.49740000 0.87060000
vt 0.50120000 0.46950000
vt 0.50300000 0.74130000
vt 0.50370000 0.44270000
vt 0.51030000 0.53170000
vt 0.55270000 0.71960000
vt 0.55460000 0.85240000
vt 0.60850000 0.83130000
vt 0.60990000 0.70100000
vt 0.65220000 0.60480000
vt 0.65910000 0.53180000
vt 0.66930000 0.48620000
vt 0.75890000 0.70600000
vt 0.78150000 0.61760000
vt 0.79520000 0.80590000
vt 0.80200000 0.51780000
vt 0.80360000 0.48670000
vt 0.87170000 0.61930000
vt 0.90780000 0.81140000
vt 0.90820000 0.65980000
vt 0.91340000 0.72350000
vt 0.91370000 0.72410000
vt 0.96010000 0.58360000
vt 0.96420000 0.63180000
vt 0.97070000 0.52070000
vt 0.97720000 0.46580000
vn -0.35575519 -0.15764242 -0.92118788
vn -0.44313614 -4.9160849e-2 -0.89510534
vn -0.70460267 -1.6262509e-2 -0.70941568
vn -0.96989528 -8.1319903e-2 -0.22954350
vn -0.97836105 4.2901080e-2 -0.20240839
vn -0.42860860 -0.10186029 -0.89773000
vn -0.38664494 -5.7177053e-2 -0.92045450
vn 0.19481611 -0.23072913 -0.95331566
vn -0.99622379 -7.7385691e-2 3.9365150e-2
vn -0.77981758 -0.12477587 0.61344562
vn -0.72686139 -9.9561479e-2 0.67952927
vn -0.80309502 -2.2725089e-2 0.59541747
vn -0.95219382 1.7955391e-2 -0.30496646
vn -9.4150066e-3 -0.37099586 -0.92858679
vn -0.15551740 -8.9314225e-2 -0.98378723
vn -0.55744971 -2.9482670e-2 -0.82968705
vn -0.80346759 5.3402810e-2 -0.59294853
vn 0.97148368 -0.22457605 -7.6059581e-2
vn 0.92804398 -0.33821515 0.15602845
vn 0.95937481 -0.28181705 1.3383639e-2
vn 0.92388075 0.16661345 -0.34450591
vn 0.41868888 0.11030023 -0.90140639
vn -0.19657597 8.0424754e-2 -0.97718460
vn 0.63757179 -0.39025046 -0.66423398
vn 0.96207024 -8.7988693e-2 -0.25822247
vn 0.50631719 -4.5816143e-2 -0.86112937
vn -7.1777461e-3 -0.34446354 -0.93877226
vn 0.94207395 -2.1002105e-2 0.33474705
vn 0.89889237 7.8489785e-2 0.43108219
vn 0.13836392 8.8025124e-3 0.99034234
vn 0.12350681 -2.5809876e-2 0.99200802
vn 8.6060999e-2 -0.14770034 0.98528073
vn -4.4193168e-2 -0.40182482 0.91464954
vn -0.31005972 -4.3222690e-2 0.94973405
vn -0.16730680 -0.15360775 0.97386503
vn -0.62636101 4.9920840e-2 0.77793302
vn 0.70068640 -0.61522589 0.36129720
vn 0.57765341 -0.49938601 0.64570128
vn -0.94081368 6.1656206e-2 0.33326885
vn -0.91375345 9.5119265e-3 0.40615780
vn -0.65668398 -3.2155975e-2 0.75348002
vn -0.27767564 -7.4737961e-2 0.95776327
vn -0.98827120 4.4611435e-2 -0.14604745
vn 3.1728843e-2 -9.0807421e-2 -0.99536290
g PIERNAS_Mat.001
usemtl Mat.001
s 1
f 1/17/1 8/12/8 2/18/2
f 1/17/1 14/11/14 8/12/8
f 1/17/1 15/13/15 14/11/14
f 1/17/1 16/16/16 15/13/15
f 2/18/2 3/23/3 1/17/1
f 2/18/2 4/28/4 3/23/3
f 2/18/2 7/21/7 4/28/4
f 2/18/2 8/12/8 7/21/7
f 3/23/3 16/16/16 1/17/1
f 3/23/3 17/22/17 16/16/16
f 4/28/4 5/26/5 3/23/3
f 4/28/4 7/21/7 6/19/6
f 4/28/4 40/29/40 5/26/5
f 4/28/4 41/32/41 40/29/40
f 5/26/5 17/22/17 3/23/3
f 5/26/5 40/29/40 39/30/39
f 5/26/5 43/24/43 17/22/17
f 6/19/6 9/25/9 4/28/4
f 6/19/6 13/27/13 9/25/9
f 6/19/6 23/20/23 13/27/13
f 6/19/6 26/14/26 23/20/23
f 7/21/7 8/12/8 6/19/6
f 8/12/8 26/14/26 6/19/6
f 9/25/9 10/33/10 4/28/4
f 9/25/9 11/34/11 10/33/10
f 9/25/9 12/35/12 11/34/11
f 9/25/9 13/27/13 12/35/12
f 10/33/10 41/32/41 4/28/4
f 11/34/11 32/37/32 10/33/10
f 12/35/12 30/39/30 11/34/11
f 12/35/12 31/40/31 30/39/30
f 14/11/14 24/8/24 8/12/8
f 14/11/14 27/7/27 24/8/24
f 15/13/15 27/7/27 14/11/14
f 15/13/15 44/6/44 27/7/27
f 18/5/18 20/1/20 19/2/19
f 18/5/18 25/9/25 24/8/24
f 19/2/19 25/9/25 18/5/18
f 19/2/19 28/3/28 25/9/25
f 19/46/19 38/41/38 28/48/28
f 20/47/20 37/43/37 19/46/19
f 21/10/21 26/14/26 25/9/25
f 22/15/22 26/14/26 21/10/21
f 23/20/23 26/14/26 22/15/22
f 24/8/24 26/14/26 8/12/8
f 25/9/25 26/14/26 24/8/24
f 25/9/25 28/3/28 21/10/21
f 28/3/28 29/4/29 21/10/21
f 28/48/28 30/39/30 29/49/29
f 28/48/28 32/37/32 30/39/30
f 28/48/28 38/41/38 32/37/32
f 30/39/30 31/40/31 29/49/29
f 30/39/30 32/37/32 11/34/11
f 32/37/32 38/41/38 35/36/35
f 32/37/32 41/32/41 10/33/10
f 33/44/33 38/41/38 37/43/37
f 33/45/33 42/42/42 34/38/34
f 34/38/34 35/36/35 33/44/33
f 34/38/34 36/31/36 35/36/35
f 35/36/35 38/41/38 33/44/33
f 35/36/35 41/32/41 32/37/32
f 36/31/36 41/32/41 35/36/35
f 37/43/37 38/41/38 19/46/19
f 39/30/39 40/29/40 36/31/36
f 39/30/39 43/24/43 5/26/5
f 40/29/40 41/32/41 36/31/36
